<svg xmlns="http://www.w3.org/2000/svg" width="131" height="129" viewBox="0 0 131 129">
  <defs>
    <style>
      .cls-1 {
        fill: #fff;
        fill-rule: evenodd;
      }
    </style>
  </defs>
  <path class="cls-1" d="M308.235,1221.62a2.62,2.62,0,1,1-2.62-2.61A2.618,2.618,0,0,1,308.235,1221.62Zm13.993,0a2.62,2.62,0,1,1-2.62-2.61A2.618,2.618,0,0,1,322.228,1221.62Zm13.993,0a2.62,2.62,0,1,1-2.62-2.61A2.618,2.618,0,0,1,336.221,1221.62Zm13.993,0a2.62,2.62,0,1,1-2.62-2.61A2.618,2.618,0,0,1,350.214,1221.62Zm13.993,0a2.621,2.621,0,1,1-2.62-2.61A2.618,2.618,0,0,1,364.207,1221.62Zm-55.972,13.63a2.62,2.62,0,1,1-2.62-2.61A2.618,2.618,0,0,1,308.235,1235.25Zm13.993,0a2.62,2.62,0,1,1-2.62-2.61A2.618,2.618,0,0,1,322.228,1235.25Zm13.993,0a2.62,2.62,0,1,1-2.62-2.61A2.618,2.618,0,0,1,336.221,1235.25Zm13.993,0a2.62,2.62,0,1,1-2.62-2.61A2.618,2.618,0,0,1,350.214,1235.25Zm13.993,0a2.621,2.621,0,1,1-2.62-2.61A2.618,2.618,0,0,1,364.207,1235.25Zm-55.972,13.63a2.62,2.62,0,1,1-2.62-2.61A2.618,2.618,0,0,1,308.235,1248.88Zm13.993,0a2.62,2.62,0,1,1-2.62-2.61A2.618,2.618,0,0,1,322.228,1248.88Zm13.993,0a2.62,2.62,0,1,1-2.62-2.61A2.618,2.618,0,0,1,336.221,1248.88Zm13.993,0a2.62,2.62,0,1,1-2.62-2.61A2.618,2.618,0,0,1,350.214,1248.88Zm13.993,0a2.621,2.621,0,1,1-2.62-2.61A2.618,2.618,0,0,1,364.207,1248.88Zm-55.972,13.63a2.62,2.62,0,1,1-2.62-2.61A2.618,2.618,0,0,1,308.235,1262.51Zm13.993,0a2.62,2.62,0,1,1-2.62-2.61A2.618,2.618,0,0,1,322.228,1262.51Zm13.993,0a2.62,2.62,0,1,1-2.62-2.61A2.618,2.618,0,0,1,336.221,1262.51Zm13.993,0a2.62,2.62,0,1,1-2.62-2.61A2.618,2.618,0,0,1,350.214,1262.51Zm13.993,0a2.621,2.621,0,1,1-2.62-2.61A2.618,2.618,0,0,1,364.207,1262.51Zm-55.972,13.63a2.62,2.62,0,1,1-2.62-2.61A2.618,2.618,0,0,1,308.235,1276.14Zm13.993,0a2.62,2.62,0,1,1-2.62-2.61A2.618,2.618,0,0,1,322.228,1276.14Zm13.993,0a2.62,2.62,0,1,1-2.62-2.61A2.618,2.618,0,0,1,336.221,1276.14Zm13.993,0a2.62,2.62,0,1,1-2.62-2.61A2.618,2.618,0,0,1,350.214,1276.14Zm27.819-54.52a2.62,2.62,0,1,1-2.62-2.61A2.618,2.618,0,0,1,378.033,1221.62Zm13.993,0a2.62,2.62,0,1,1-2.62-2.61A2.618,2.618,0,0,1,392.026,1221.62Zm13.993,0a2.62,2.62,0,1,1-2.62-2.61A2.618,2.618,0,0,1,406.019,1221.62Zm13.993,0a2.621,2.621,0,1,1-2.62-2.61A2.618,2.618,0,0,1,420.012,1221.62Zm13.993,0a2.621,2.621,0,1,1-2.62-2.61A2.618,2.618,0,0,1,434.005,1221.62Zm-55.972,13.63a2.62,2.62,0,1,1-2.62-2.61A2.618,2.618,0,0,1,378.033,1235.25Zm13.993,0a2.62,2.62,0,1,1-2.62-2.61A2.618,2.618,0,0,1,392.026,1235.25Zm13.993,0a2.62,2.62,0,1,1-2.62-2.61A2.618,2.618,0,0,1,406.019,1235.25Zm13.993,0a2.621,2.621,0,1,1-2.62-2.61A2.618,2.618,0,0,1,420.012,1235.25Zm13.993,0a2.621,2.621,0,1,1-2.62-2.61A2.618,2.618,0,0,1,434.005,1235.25Zm-55.972,13.63a2.62,2.62,0,1,1-2.62-2.61A2.618,2.618,0,0,1,378.033,1248.88Zm13.993,0a2.62,2.62,0,1,1-2.62-2.61A2.618,2.618,0,0,1,392.026,1248.88Zm13.993,0a2.62,2.62,0,1,1-2.62-2.61A2.618,2.618,0,0,1,406.019,1248.88Zm13.993,0a2.621,2.621,0,1,1-2.62-2.61A2.618,2.618,0,0,1,420.012,1248.88Zm13.993,0a2.621,2.621,0,1,1-2.62-2.61A2.618,2.618,0,0,1,434.005,1248.88Zm-55.972,13.63a2.62,2.62,0,1,1-2.62-2.61A2.618,2.618,0,0,1,378.033,1262.51Zm13.993,0a2.62,2.62,0,1,1-2.62-2.61A2.618,2.618,0,0,1,392.026,1262.51Zm13.993,0a2.62,2.62,0,1,1-2.62-2.61A2.618,2.618,0,0,1,406.019,1262.51Zm13.993,0a2.621,2.621,0,1,1-2.62-2.61A2.618,2.618,0,0,1,420.012,1262.51Zm13.993,0a2.621,2.621,0,1,1-2.62-2.61A2.618,2.618,0,0,1,434.005,1262.51Zm-125.77,28.35a2.62,2.62,0,1,1-2.62-2.62A2.616,2.616,0,0,1,308.235,1290.86Zm13.993,0a2.62,2.62,0,1,1-2.62-2.62A2.616,2.616,0,0,1,322.228,1290.86Zm13.993,0a2.62,2.62,0,1,1-2.62-2.62A2.616,2.616,0,0,1,336.221,1290.86Zm13.993,0a2.62,2.62,0,1,1-2.62-2.62A2.616,2.616,0,0,1,350.214,1290.86Zm-41.979,13.63a2.62,2.62,0,1,1-2.62-2.62A2.616,2.616,0,0,1,308.235,1304.49Zm13.993,0a2.62,2.62,0,1,1-2.62-2.62A2.616,2.616,0,0,1,322.228,1304.49Zm13.993,0a2.62,2.62,0,1,1-2.62-2.62A2.616,2.616,0,0,1,336.221,1304.49Zm13.993,0a2.62,2.62,0,1,1-2.62-2.62A2.616,2.616,0,0,1,350.214,1304.49Zm-41.979,13.63a2.62,2.62,0,1,1-2.62-2.62A2.616,2.616,0,0,1,308.235,1318.12Zm13.993,0a2.62,2.62,0,1,1-2.62-2.62A2.616,2.616,0,0,1,322.228,1318.12Zm13.993,0a2.62,2.62,0,1,1-2.62-2.62A2.616,2.616,0,0,1,336.221,1318.12Zm13.993,0a2.62,2.62,0,1,1-2.62-2.62A2.616,2.616,0,0,1,350.214,1318.12Zm-41.979,13.63a2.62,2.62,0,1,1-2.62-2.62A2.616,2.616,0,0,1,308.235,1331.75Zm13.993,0a2.62,2.62,0,1,1-2.62-2.62A2.616,2.616,0,0,1,322.228,1331.75Zm13.993,0a2.62,2.62,0,1,1-2.62-2.62A2.616,2.616,0,0,1,336.221,1331.75Zm13.993,0a2.62,2.62,0,1,1-2.62-2.62A2.616,2.616,0,0,1,350.214,1331.75Zm-41.979,13.63a2.62,2.62,0,1,1-2.62-2.62A2.616,2.616,0,0,1,308.235,1345.38Zm13.993,0a2.62,2.62,0,1,1-2.62-2.62A2.616,2.616,0,0,1,322.228,1345.38Zm13.993,0a2.62,2.62,0,1,1-2.62-2.62A2.616,2.616,0,0,1,336.221,1345.38Zm13.993,0a2.62,2.62,0,1,1-2.62-2.62A2.616,2.616,0,0,1,350.214,1345.38Z" transform="translate(-303 -1219)"/>
</svg>
