<svg xmlns="http://www.w3.org/2000/svg" width="59" height="60" viewBox="0 0 59 60">
  <defs>
    <style>
      .cls-1 {
        fill: #88c250;
        fill-rule: evenodd;
      }
    </style>
  </defs>
  <path class="cls-1" d="M800,1890.99l6.619,0.01v3.27H803.31v3.27H800v-6.55Zm17.46,0,6.619,0.01v3.27H820.77v3.27h-3.31v-6.55Zm17.46,0,6.619,0.01v3.27H838.23v3.27h-3.31v-6.55Zm17.46,0L859,1891v3.27H855.69v3.27h-3.31v-6.55ZM800,1908.81h6.619v3.28H803.31v3.27H800v-6.55Zm17.46,0h6.619v3.28H820.77v3.27h-3.31v-6.55Zm17.46,0h6.619v3.28H838.23v3.27h-3.31v-6.55Zm17.46,0H859v3.28H855.69v3.27h-3.31v-6.55ZM800,1926.63h6.619v3.27H803.31v3.28H800v-6.55Zm17.46,0h6.619v3.27H820.77v3.28h-3.31v-6.55Zm17.46,0h6.619v3.27H838.23v3.28h-3.31v-6.55Zm17.46,0H859v3.27H855.69v3.28h-3.31v-6.55ZM800,1944.45h6.619v3.27H803.31v3.27H800v-6.54Zm17.46,0h6.619v3.27H820.77v3.27h-3.31v-6.54Zm17.46,0h6.619v3.27H838.23v3.27h-3.31v-6.54Zm17.46,0H859v3.27H855.69v3.27h-3.31v-6.54Z" transform="translate(-800 -1891)"/>
</svg>
