<svg xmlns="http://www.w3.org/2000/svg" width="71.94" height="38" viewBox="0 0 71.94 38">
  <defs>
    <style>
      .cls-1 {
        fill: #88c250;
        fill-rule: evenodd;
      }
    </style>
  </defs>
  <path class="cls-1" d="M1467.65,251.557a3.08,3.08,0,1,1-3.08-3.059A3.064,3.064,0,0,1,1467.65,251.557Zm16.45,0a3.08,3.08,0,1,1-3.08-3.059A3.071,3.071,0,0,1,1484.1,251.557Zm16.45,0a3.08,3.08,0,1,1-3.08-3.059A3.071,3.071,0,0,1,1500.55,251.557Zm16.45,0a3.08,3.08,0,1,1-3.08-3.059A3.071,3.071,0,0,1,1517,251.557Zm16.45,0a3.08,3.08,0,1,1-3.08-3.059A3.071,3.071,0,0,1,1533.45,251.557Zm-65.8,15.944a3.08,3.08,0,1,1-3.08-3.059A3.063,3.063,0,0,1,1467.65,267.5Zm16.45,0a3.08,3.08,0,1,1-3.08-3.059A3.07,3.07,0,0,1,1484.1,267.5Zm16.45,0a3.08,3.08,0,1,1-3.08-3.059A3.07,3.07,0,0,1,1500.55,267.5Zm16.45,0a3.08,3.08,0,1,1-3.08-3.059A3.07,3.07,0,0,1,1517,267.5Zm16.45,0a3.08,3.08,0,1,1-3.08-3.059A3.07,3.07,0,0,1,1533.45,267.5Zm-65.8,15.943a3.08,3.08,0,1,1-3.08-3.059A3.063,3.063,0,0,1,1467.65,283.444Zm16.45,0a3.08,3.08,0,1,1-3.08-3.059A3.07,3.07,0,0,1,1484.1,283.444Zm16.45,0a3.08,3.08,0,1,1-3.08-3.059A3.07,3.07,0,0,1,1500.55,283.444Zm16.45,0a3.08,3.08,0,1,1-3.08-3.059A3.07,3.07,0,0,1,1517,283.444Zm16.45,0a3.08,3.08,0,1,1-3.08-3.059A3.07,3.07,0,0,1,1533.45,283.444Z" transform="translate(-1461.5 -248.5)"/>
</svg>
