<svg xmlns="http://www.w3.org/2000/svg" width="77" height="19" viewBox="0 0 77 19">
  <defs>
    <style>
      .cls-1 {
        fill: #006838;
        fill-rule: evenodd;
      }
    </style>
  </defs>
  <path class="cls-1" d="M379.077,204.529a1.54,1.54,0,1,1-1.54-1.529A1.535,1.535,0,0,1,379.077,204.529Zm8.225,0a1.54,1.54,0,1,1-1.54-1.529A1.535,1.535,0,0,1,387.3,204.529Zm8.224,0a1.54,1.54,0,1,1-1.54-1.529A1.535,1.535,0,0,1,395.526,204.529Zm8.224,0A1.54,1.54,0,1,1,402.211,203,1.534,1.534,0,0,1,403.75,204.529Zm8.225,0a1.54,1.54,0,1,1-1.54-1.529A1.535,1.535,0,0,1,411.975,204.529Zm-32.9,7.972a1.54,1.54,0,1,1-1.54-1.53A1.534,1.534,0,0,1,379.077,212.5Zm8.225,0a1.54,1.54,0,1,1-1.54-1.53A1.535,1.535,0,0,1,387.3,212.5Zm8.224,0a1.54,1.54,0,1,1-1.54-1.53A1.534,1.534,0,0,1,395.526,212.5Zm8.224,0a1.54,1.54,0,1,1-1.539-1.53A1.534,1.534,0,0,1,403.75,212.5Zm8.225,0a1.54,1.54,0,1,1-1.54-1.53A1.535,1.535,0,0,1,411.975,212.5Zm-32.9,7.972a1.54,1.54,0,1,1-1.54-1.53A1.535,1.535,0,0,1,379.077,220.473Zm8.225,0a1.54,1.54,0,1,1-1.54-1.53A1.535,1.535,0,0,1,387.3,220.473Zm8.224,0a1.54,1.54,0,1,1-1.54-1.53A1.535,1.535,0,0,1,395.526,220.473Zm8.224,0a1.54,1.54,0,1,1-1.539-1.53A1.534,1.534,0,0,1,403.75,220.473Zm8.225,0a1.54,1.54,0,1,1-1.54-1.53A1.535,1.535,0,0,1,411.975,220.473Zm8.126-15.944a1.54,1.54,0,1,1-1.54-1.529A1.535,1.535,0,0,1,420.1,204.529Zm8.225,0a1.54,1.54,0,1,1-1.54-1.529A1.535,1.535,0,0,1,428.326,204.529Zm8.224,0A1.54,1.54,0,1,1,435.01,203,1.535,1.535,0,0,1,436.55,204.529Zm8.225,0a1.54,1.54,0,1,1-1.54-1.529A1.535,1.535,0,0,1,444.775,204.529Zm8.224,0a1.54,1.54,0,1,1-1.54-1.529A1.535,1.535,0,0,1,453,204.529ZM420.1,212.5a1.54,1.54,0,1,1-1.54-1.53A1.534,1.534,0,0,1,420.1,212.5Zm8.225,0a1.54,1.54,0,1,1-1.54-1.53A1.535,1.535,0,0,1,428.326,212.5Zm8.224,0a1.54,1.54,0,1,1-1.54-1.53A1.534,1.534,0,0,1,436.55,212.5Zm8.225,0a1.54,1.54,0,1,1-1.54-1.53A1.535,1.535,0,0,1,444.775,212.5Zm8.224,0a1.54,1.54,0,1,1-1.54-1.53A1.534,1.534,0,0,1,453,212.5Zm-32.9,7.972a1.54,1.54,0,1,1-1.54-1.53A1.535,1.535,0,0,1,420.1,220.473Zm8.225,0a1.54,1.54,0,1,1-1.54-1.53A1.535,1.535,0,0,1,428.326,220.473Zm8.224,0a1.54,1.54,0,1,1-1.54-1.53A1.535,1.535,0,0,1,436.55,220.473Zm8.225,0a1.54,1.54,0,1,1-1.54-1.53A1.535,1.535,0,0,1,444.775,220.473Zm8.224,0a1.54,1.54,0,1,1-1.54-1.53A1.535,1.535,0,0,1,453,220.473Z" transform="translate(-376 -203)"/>
</svg>
