<svg xmlns="http://www.w3.org/2000/svg" width="44" height="45" viewBox="0 0 44 45">
  <defs>
    <style>
      .cls-1 {
        fill: #ffffff;
        fill-rule: evenodd;
      }
    </style>
  </defs>
  <path class="cls-1" d="M828,614h4.936v2.455h-2.467v2.454H828V614Zm13.021,0h4.936v2.455H843.49v2.454h-2.469V614Zm13.021,0h4.936v2.455h-2.467v2.454h-2.469V614Zm13.021,0H872v2.455h-2.467v2.454h-2.469V614ZM828,627.359h4.936v2.454h-2.467v2.455H828v-4.911Zm13.021,0h4.936v2.454H843.49v2.455h-2.469v-4.911Zm13.021,0h4.936v2.454h-2.467v2.455h-2.469v-4.911Zm13.021,0H872v2.454h-2.467v2.455h-2.469v-4.911ZM828,640.721h4.936v2.455h-2.467v2.455H828v-4.911Zm13.021,0h4.936v2.455H843.49v2.455h-2.469v-4.911Zm13.021,0h4.936v2.455h-2.467v2.455h-2.469v-4.911Zm13.021,0H872v2.455h-2.467v2.455h-2.469v-4.911ZM828,654.084h4.936v2.455h-2.467v2.454H828v-4.911Zm13.021,0h4.936v2.455H843.49v2.454h-2.469v-4.911Zm13.021,0h4.936v2.455h-2.467v2.454h-2.469v-4.911Zm13.021,0H872v2.455h-2.467v2.454h-2.469v-4.911Z" transform="translate(-828 -614)"/>
</svg>
