<svg xmlns="http://www.w3.org/2000/svg" width="203" height="199" viewBox="0 0 203 199">
  <defs>
    <style>
      .cls-1 {
        fill: #006838;
      }

      .cls-1, .cls-2 {
        fill-rule: evenodd;
      }

      .cls-2 {
        fill: #88c250;
      }
    </style>
  </defs>
  <path class="cls-1" d="M203,71.41v53.2A8.272,8.272,0,0,1,194.846,133h-42.3a18.208,18.208,0,0,1-15.926-9.561A144.916,144.916,0,0,0,84.676,69.1,22.178,22.178,0,0,1,74,50.108V8.409A8.309,8.309,0,0,1,82.154,0h51.583a8.288,8.288,0,0,1,8.155,8.408V63h52.954A8.285,8.285,0,0,1,203,71.41Z"/>
  <path class="cls-2" d="M69.59,144.089v43.834A11.071,11.071,0,0,0,80.656,199h47.275A11.072,11.072,0,0,0,139,187.923v-26.87c0-18.16-19.092-43.282-28.374-53.812C87.769,81.313,64.9,67,19.949,67H2.7C17.766,95.484,56.094,111.16,80.9,112.1c-27.941.35-65.3-14.164-80.9-42.908,0.976,40.371,28.826,64.387,69.6,67.285,24.382,1.732,48.108,1.032,56.41,13.343,4.2,6.224,3.79,11.812,3.79,19.435l-0.014,18.673a1.847,1.847,0,0,1-1.846,1.846H80.656a1.845,1.845,0,0,1-1.844-1.846V156.947C78.812,145.109,69.59,144.089,69.59,144.089Z"/>
</svg>
