<svg width="2600" height="729" viewBox="0 0 2600 729" fill="none" xmlns="http://www.w3.org/2000/svg">
<g clip-path="url(#clip0)">
<path d="M276.74 2C260.172 2 246.74 15.4314 246.74 32L246.74 241.002C247.073 241.001 247.407 241 247.74 241C379.736 241 486.74 348.004 486.74 480L694.74 480C711.309 480 724.74 466.569 724.74 450V270C724.74 253.431 711.309 240 694.74 240H486.74V32C486.74 15.4315 473.309 2 456.74 2H276.74Z" fill="white"/>
<path d="M609.764 304.457H607.757V302.45C607.757 301.479 606.97 300.692 605.999 300.692C605.028 300.692 604.241 301.479 604.241 302.45V304.457H602.234C601.264 304.457 600.477 305.244 600.477 306.215C600.477 307.186 601.264 307.973 602.234 307.973H604.241V309.98C604.241 310.951 605.028 311.738 605.999 311.738C606.97 311.738 607.757 310.951 607.757 309.98V307.973H609.764C610.735 307.973 611.522 307.186 611.522 306.215C611.522 305.244 610.735 304.457 609.764 304.457V304.457Z" fill="#006838"/>
<path d="M595.092 345.006C596.063 345.006 596.85 344.219 596.85 343.248V341.915C596.85 340.944 596.063 340.157 595.092 340.157C594.121 340.157 593.334 340.944 593.334 341.915V343.248C593.334 344.219 594.121 345.006 595.092 345.006Z" fill="#006838"/>
<path d="M616.904 345.006C617.875 345.006 618.662 344.219 618.662 343.248V341.915C618.662 340.944 617.875 340.157 616.904 340.157C615.933 340.157 615.146 340.944 615.146 341.915V343.248C615.146 344.219 615.934 345.006 616.904 345.006Z" fill="#006838"/>
<path d="M605.839 359.645C605.892 359.646 605.945 359.647 605.997 359.647C608.201 359.647 610.314 358.708 611.962 356.993C612.635 356.293 612.613 355.181 611.913 354.508C611.213 353.835 610.1 353.857 609.427 354.557C608.427 355.597 607.18 356.158 605.911 356.13C604.704 356.106 603.573 355.565 602.726 354.61C602.082 353.883 600.971 353.816 600.245 354.459C599.518 355.103 599.451 356.214 600.094 356.941C601.6 358.64 603.64 359.6 605.839 359.645V359.645Z" fill="#006838"/>
<path d="M623.209 400.529C622.238 400.529 621.451 401.316 621.451 402.287C621.451 403.258 622.238 404.045 623.209 404.045H637.853C638.824 404.045 639.611 403.258 639.611 402.287C639.611 401.316 638.824 400.529 637.853 400.529H623.209Z" fill="#006838"/>
<path d="M655.279 409.472L653.431 400.027C653.244 399.074 652.321 398.453 651.368 398.639C650.415 398.826 649.794 399.749 649.98 400.702L651.828 410.143C651.852 410.266 651.867 410.366 651.875 410.447C651.723 410.467 651.496 410.484 651.163 410.484H612.94L620.4 380.327L621.803 374.649C632.391 377.425 646.296 381.818 648.419 392.702C648.583 393.542 649.319 394.124 650.143 394.124C650.254 394.124 650.367 394.113 650.481 394.091C651.434 393.905 652.056 392.982 651.87 392.029C649.875 381.803 640.001 376.647 630.296 373.452C633.087 371.149 635.328 370.026 641.484 371.131C643.164 371.435 643.828 370.407 643.991 370.084C644.205 369.664 644.56 368.552 643.265 367.325C639.212 363.46 638.543 358.634 638.002 351.721V342.35C638.002 342.35 638 339.985 638 339.954C637.951 328.618 634.928 318.706 629.451 311.856L632.734 305.12C633.268 304.044 633.633 302.664 631.698 301.539C623.104 296.564 614.459 294.027 605.993 294C597.539 294.027 588.894 296.564 580.295 301.541C578.365 302.664 578.729 304.044 579.258 305.11L582.546 311.854C580.724 314.131 579.166 316.737 577.907 319.62C577.519 320.509 577.925 321.546 578.815 321.934C579.044 322.034 579.283 322.081 579.518 322.081C580.195 322.081 580.841 321.687 581.129 321.027C582.021 318.985 583.077 317.107 584.277 315.407L586.542 320.052C587.133 321.257 588.158 321.675 589.512 321.258C596.728 319.016 601.352 318.134 605.999 318.115C610.647 318.134 615.27 319.016 622.491 321.26C622.829 321.364 623.147 321.416 623.443 321.416C624.327 321.416 625.014 320.954 625.459 320.048L627.722 315.405C631.286 320.469 633.53 327.172 634.242 334.838C633.72 334.669 633.164 334.576 632.587 334.576H630.859C630.829 333.02 629.555 331.762 627.992 331.762H626.384C622.299 331.762 619.549 329.279 617.952 327.173L615.997 324.146C615.933 324.047 615.858 323.954 615.775 323.869C615.564 323.653 615.002 323.081 614.115 323.081C613.227 323.081 612.666 323.653 612.455 323.869C612.372 323.954 612.298 324.046 612.233 324.146L609.996 327.609C606.994 332.257 597.552 332.022 589.965 331.833C588.514 331.797 587.144 331.763 585.863 331.763H584.007C582.443 331.763 581.17 333.02 581.14 334.576H579.412C578.835 334.576 578.28 334.669 577.758 334.838C577.954 332.711 578.262 330.654 578.691 328.69C578.898 327.742 578.296 326.805 577.348 326.598C576.4 326.391 575.463 326.992 575.256 327.941C574.444 331.661 574.024 335.673 574.001 339.866C573.999 339.926 573.996 342.35 573.996 342.35V351.72C573.455 358.633 572.786 363.46 568.73 367.328C567.441 368.563 567.798 369.671 568.012 370.09C568.175 370.41 568.839 371.434 570.511 371.131C576.669 370.027 578.911 371.149 581.702 373.452C571.997 376.647 562.124 381.803 560.128 392.028L556.718 409.477C556.618 409.995 556.313 411.571 557.294 412.758C558.202 413.858 559.663 413.999 560.835 413.999H601.297C601.298 413.999 601.3 414 601.302 414C601.305 414 601.307 413.999 601.31 413.999H610.689C610.692 413.999 610.694 414 610.696 414C610.698 414 610.7 413.999 610.702 413.999H651.163C652.335 413.999 653.797 413.858 654.705 412.758C655.685 411.571 655.381 409.995 655.279 409.472V409.472ZM622.716 317.651C615.592 315.479 610.853 314.619 606.006 314.6C606.003 314.6 606.001 314.6 605.999 314.6C605.997 314.6 605.994 314.6 605.992 314.6C601.144 314.619 596.404 315.48 589.282 317.651L582.726 304.201C590.56 299.789 598.388 297.54 605.993 297.516C613.611 297.54 621.44 299.79 629.272 304.201L622.716 317.651ZM617.167 378.756C609.567 382.665 602.425 382.633 594.808 378.656L593.6 373.772L593.629 373.764C596.071 373.145 596.435 371.382 596.435 370.386V367.361C597.467 367.915 598.524 368.4 599.6 368.798C601.947 369.668 603.981 370.073 605.999 370.073C608.017 370.073 610.05 369.668 612.398 368.798C613.474 368.4 614.531 367.915 615.562 367.361V370.386C615.562 371.382 615.927 373.145 618.364 373.763L618.398 373.772L617.167 378.756ZM630.861 344.929V338.092H632.587C633.606 338.092 634.467 338.968 634.485 340.013C634.485 340.087 634.487 342.35 634.487 342.35C634.487 344.562 632.837 345.87 630.787 346.394C630.833 345.903 630.861 345.413 630.861 344.929ZM630.056 350.096C631.757 349.908 633.259 349.396 634.487 348.623V351.789C634.487 351.835 634.489 351.88 634.492 351.926C634.974 358.101 635.599 363.042 638.555 367.233C632.511 366.89 629.911 369.129 626.746 371.856C626.602 371.98 626.455 372.106 626.308 372.232C624.089 371.599 619.119 370.326 619.078 370.312V365.122C624.273 361.27 628.39 355.671 630.056 350.096V350.096ZM584.652 335.278H585.862C587.1 335.278 588.448 335.312 589.876 335.348C598.342 335.558 608.877 335.821 612.949 329.517L614.115 327.712L615.033 329.135C615.056 329.17 615.08 329.204 615.105 329.238C616.802 331.494 620.523 335.278 626.384 335.278H627.346V344.929C627.346 345.887 627.23 346.874 627.012 347.873C626.983 347.96 626.962 348.051 626.947 348.145C625.289 355.167 618.631 362.739 611.176 365.501C609.232 366.222 607.587 366.558 605.999 366.558C604.411 366.558 602.766 366.222 600.822 365.501C593.367 362.738 586.708 355.166 585.051 348.144C585.036 348.051 585.015 347.96 584.986 347.873C584.768 346.874 584.652 345.887 584.652 344.929V335.278H584.652ZM577.514 339.986C577.546 338.954 578.401 338.092 579.411 338.092H581.136V344.929C581.136 345.413 581.165 345.903 581.21 346.395C579.161 345.87 577.511 344.563 577.511 342.35C577.511 342.35 577.514 340.069 577.514 339.986ZM573.443 367.234C576.398 363.045 577.024 358.103 577.506 351.926C577.509 351.88 577.511 351.835 577.511 351.789V348.623C578.739 349.396 580.241 349.908 581.941 350.096C583.608 355.671 587.724 361.27 592.92 365.122V370.313C592.878 370.326 587.908 371.599 585.69 372.232C585.542 372.106 585.395 371.98 585.252 371.856C582.088 369.13 579.49 366.893 573.443 367.234V367.234ZM560.835 410.484C560.502 410.484 560.274 410.467 560.122 410.447C560.131 410.367 560.145 410.268 560.168 410.147L563.578 392.702C565.702 381.818 579.607 377.425 590.196 374.649L599.058 410.484H560.835ZM609.319 410.484H602.679L595.895 383.052C599.301 384.477 602.627 385.182 605.98 385.196C606.016 385.197 606.052 385.197 606.088 385.197C609.413 385.197 612.711 384.517 616.085 383.13L609.319 410.484Z" fill="#006838"/>
<g clip-path="url(#clip1)">
<path d="M401.672 174.695C400.702 174.695 399.914 175.484 399.914 176.453C399.914 177.423 400.702 178.211 401.672 178.211C402.641 178.211 403.43 177.423 403.43 176.453C403.43 175.484 402.641 174.695 401.672 174.695ZM406.945 167.325V157.178C406.945 153.651 405.925 150.231 403.994 147.287C403.462 146.475 402.372 146.249 401.56 146.781C400.748 147.314 400.522 148.403 401.054 149.215C402.608 151.585 403.43 154.338 403.43 157.178V166.056C402.858 165.959 402.271 165.906 401.672 165.906C401.073 165.906 400.486 165.959 399.914 166.056V157.178C399.914 151.087 394.96 146.132 388.87 146.132C382.78 146.132 377.824 151.087 377.824 157.178V167.322C377.824 175.35 371.292 181.881 363.262 181.881C355.234 181.881 348.703 175.35 348.703 167.322V162.092C349.249 162.288 349.863 162.395 350.465 162.395C351.073 162.395 351.662 162.288 352.219 162.091V167.322C352.219 173.411 357.173 178.366 363.262 178.366C369.353 178.366 374.309 173.411 374.309 167.322V157.178C374.309 149.149 380.841 142.616 388.87 142.616C391.253 142.616 393.618 143.207 395.708 144.325C396.565 144.783 397.63 144.46 398.087 143.604C398.545 142.748 398.222 141.683 397.366 141.225C394.767 139.836 391.829 139.101 388.87 139.101C378.903 139.101 370.793 147.21 370.793 157.178V167.322C370.793 171.473 367.415 174.85 363.262 174.85C359.111 174.85 355.734 171.473 355.734 167.322V143.314C373.705 140.721 387.141 125.278 387.141 107.013C387.141 104.803 385.694 102.761 383.625 102.037V85.1641C383.625 79.1092 379.606 73.9042 373.893 72.3046C373.305 69.2859 370.642 67 367.453 67H363.938C360.319 67 357.375 69.944 357.375 73.5625C357.375 77.181 360.319 80.125 363.938 80.125H367.453C370.251 80.125 372.645 78.3639 373.587 75.8927C377.449 77.2666 380.109 80.9341 380.109 85.1641V102.045C378.061 102.783 376.601 104.777 376.594 107.103C376.545 121.463 364.822 133.146 350.461 133.146C344.429 133.146 338.539 131.032 333.878 127.195C333.128 126.578 332.02 126.685 331.403 127.434C330.786 128.184 330.893 129.292 331.643 129.909C336.932 134.263 343.615 136.661 350.461 136.661C366.754 136.661 380.054 123.407 380.109 107.115C380.112 106.142 380.854 105.309 381.763 105.258C382.758 105.202 383.625 106.014 383.625 107.013C383.625 123.809 371.059 137.967 354.395 139.944C353.154 140.091 352.219 141.142 352.219 142.388V157.122C352.224 158.108 351.359 158.924 350.373 158.877C349.452 158.834 348.703 158.002 348.703 157.022V142.388C348.703 141.142 347.767 140.091 346.526 139.944C329.863 137.967 317.297 123.809 317.297 107.013C317.297 106.015 318.163 105.202 319.158 105.258C320.067 105.308 320.809 106.142 320.813 107.115C320.833 113.001 322.582 118.688 325.87 123.56C326.413 124.365 327.505 124.577 328.311 124.034C329.115 123.491 329.327 122.398 328.784 121.593C325.887 117.301 324.346 112.29 324.328 107.103C324.321 104.778 322.861 102.783 320.812 102.046V85.1641C320.812 80.9341 323.473 77.2666 327.335 75.8927C328.277 78.3639 330.671 80.125 333.469 80.125H336.984C340.603 80.125 343.547 77.181 343.547 73.5625C343.547 69.944 340.603 67 336.984 67H333.469C330.28 67 327.617 69.2859 327.029 72.3046C321.315 73.9042 317.297 79.1092 317.297 85.1641V102.037C315.225 102.763 313.781 104.809 313.781 107.013C313.781 125.278 327.217 140.721 345.188 143.314V167.322C345.188 177.288 353.296 185.397 363.262 185.397C373.23 185.397 381.34 177.288 381.34 167.322V157.178C381.34 153.026 384.718 149.648 388.87 149.648C393.021 149.648 396.398 153.026 396.398 157.178V167.325C393.249 169.152 391.125 172.558 391.125 176.453C391.125 182.269 395.856 187 401.672 187C407.487 187 412.219 182.269 412.219 176.453C412.219 172.558 410.095 169.152 406.945 167.325V167.325ZM367.453 76.6094H363.938C362.257 76.6094 360.891 75.2425 360.891 73.5625C360.891 71.8825 362.257 70.5156 363.938 70.5156H367.453C369.133 70.5156 370.5 71.8825 370.5 73.5625C370.5 75.2425 369.133 76.6094 367.453 76.6094ZM333.469 70.5156H336.984C338.664 70.5156 340.031 71.8825 340.031 73.5625C340.031 75.2425 338.664 76.6094 336.984 76.6094H333.469C331.789 76.6094 330.422 75.2425 330.422 73.5625C330.422 71.8825 331.789 70.5156 333.469 70.5156ZM401.672 183.484C397.795 183.484 394.641 180.33 394.641 176.453C394.641 172.576 397.795 169.422 401.672 169.422C405.549 169.422 408.703 172.576 408.703 176.453C408.703 180.33 405.549 183.484 401.672 183.484Z" fill="#006838"/>
</g>
<path fill-rule="evenodd" clip-rule="evenodd" d="M247 712.733C365.05 706.999 459 609.471 459 490C459 366.84 359.16 267 236 267C116.192 267 18.451 361.481 13.2207 480H247V712.733Z" fill="#88C250"/>
<path fill-rule="evenodd" clip-rule="evenodd" d="M220.64 283.684L217.22 283.65V278.467H230.349V315.954H224.13L224.095 299.837L224.043 283.736L220.64 283.684ZM327.953 304.725H321.043V299.543H334.345V337.03H327.953V304.725ZM120.307 312.154L123.814 312.188L127.303 312.24L127.355 328.34L127.39 344.458H133.609V306.971H120.307V312.154ZM152.093 312.154H145.183V306.971H158.485V344.458H152.093V312.154ZM401.89 371.321C398.349 372.115 394.997 375.069 393.702 378.524L393.27 379.647L395.066 380.822C396.103 381.496 397.381 382.532 398.055 383.223L399.247 384.45L399.437 383.068C399.679 381.219 400.197 379.906 401.061 378.939C402.011 377.833 402.926 377.401 404.222 377.384C405.621 377.384 406.468 377.695 407.47 378.645C410.078 381.064 409.664 384.087 405.932 390.271C403.393 394.452 398.366 401.189 393.736 406.596C392.89 407.564 392.216 408.41 392.216 408.462C392.216 408.514 397.692 408.548 404.395 408.548H416.574V401.811L411.028 401.777L405.483 401.725L406.243 400.688C409.75 395.92 413.741 388.976 414.967 385.486C415.399 384.26 415.451 383.862 415.451 381.945C415.451 380.045 415.399 379.63 415.002 378.559C413.827 375.346 410.942 372.564 407.763 371.562C406.26 371.096 403.41 370.975 401.89 371.321ZM77.603 389.805C79.2096 382.48 83.7702 377.54 89.8165 376.572C91.043 376.382 94.1007 376.538 95.4309 376.849C99.1796 377.764 102.445 380.615 104.518 384.795C106.28 388.388 106.936 391.774 106.781 396.629C106.608 401.88 105.606 405.249 103.153 408.894C100.492 412.833 96.6229 414.923 92.0104 414.94C87.4325 414.94 83.8566 413.126 81.058 409.343C79.1578 406.804 77.914 403.642 77.3612 399.997C76.9811 397.579 77.1193 391.982 77.603 389.805ZM100.199 391.809C99.4387 387.265 97.573 384.07 94.9472 382.774C93.928 382.273 93.617 382.204 92.1486 382.169C89.7301 382.1 88.5554 382.601 86.8279 384.432C83.4766 387.991 82.3537 396.508 84.4612 402.658C85.8432 406.717 88.279 409.015 91.4403 409.205C95.5345 409.447 98.4367 406.683 99.8533 401.206C100.475 398.84 100.631 394.417 100.199 391.809ZM54.6618 382.117L58.1686 382.152L61.6582 382.204L61.71 398.304L61.7446 414.422H67.9636V376.935H54.6618V382.117ZM26.0889 475.938C27.6436 471.274 32.1006 467.612 37.0413 466.938C38.4405 466.748 40.7208 466.869 42.3101 467.232C46.8535 468.251 50.7749 472.103 52.0187 476.785C52.2254 477.556 52.326 478.729 52.3256 480H46.313C46.2554 476.964 44.0715 473.969 41.0318 473.088C39.2006 472.552 36.6439 472.863 35.0892 473.813C34.1045 474.435 32.7398 476.025 32.187 477.199C31.7648 478.101 31.5587 479.054 31.5478 480H25.4727C25.497 478.555 25.7091 477.067 26.0889 475.938ZM247 698.585C251.088 694.47 252.23 687.886 248.989 682.409C248.495 681.584 247.8 680.734 247 679.944V698.585ZM432.38 467.283C429.772 467.577 427.163 468.959 425.315 471.032C424.693 471.74 423.484 473.641 423.484 473.934C423.484 474.055 424.399 474.625 425.522 475.23C426.628 475.817 427.871 476.508 428.269 476.733L428.977 477.147L429.443 476.232C430.359 474.401 431.81 473.451 433.762 473.468C435.559 473.468 437.044 474.349 437.908 475.955C438.323 476.698 438.409 477.078 438.409 478.011C438.409 478.996 438.323 479.359 437.787 480.43C437.096 481.812 435.662 483.505 433.935 484.973L432.864 485.889L433.9 486.096C435.49 486.424 436.889 487.219 438.219 488.532C439.757 490.086 440.309 491.261 440.309 492.937C440.292 494.612 439.67 495.96 438.323 497.255C436.82 498.689 436.06 498.983 433.849 498.983C432.225 498.983 431.931 498.931 431.067 498.499C429.858 497.912 428.614 496.599 428.027 495.303C427.785 494.768 427.561 494.284 427.526 494.25C427.491 494.215 426.144 494.906 424.537 495.787L421.583 497.376L422.102 498.361C423.553 501.246 426.489 503.734 429.789 504.891C431.085 505.34 431.361 505.375 433.935 505.375C436.509 505.375 436.785 505.34 438.081 504.891C440.154 504.165 441.691 503.181 443.367 501.488C444.594 500.261 444.991 499.709 445.665 498.361C447.409 494.82 447.427 490.898 445.699 487.409C445.25 486.493 444.542 485.439 443.989 484.817L443.056 483.781L443.626 482.658C443.954 482.036 444.335 481.069 444.473 480.499C444.801 479.186 444.801 476.629 444.473 475.316C443.143 470.099 437.926 466.644 432.38 467.283ZM398.435 573.3C398.435 575.149 397.381 580.124 396.362 583.199C394.721 588.105 392.199 593.443 389.003 598.764C388.398 599.783 387.897 600.664 387.897 600.716C387.897 600.767 392.095 600.819 397.226 600.819H406.554V610.148H412.6V600.819H417.956V594.946H412.6V577.671H406.554V594.946H398.262L398.867 593.754C401.89 587.725 404.17 580.176 404.792 574.078L404.93 572.661H398.435V573.3ZM325.31 640.327C325.154 640.586 322.2 659.917 322.304 660.004C322.356 660.073 322.632 659.952 322.908 659.744C323.789 659.123 326.26 658.017 327.434 657.723C330.959 656.825 334.569 658.483 336.176 661.714C337.609 664.633 336.936 667.846 334.414 670.075C331.183 672.925 326.225 672.511 322.235 669.073C321.768 668.658 321.354 668.347 321.319 668.382C321.308 668.405 320.928 668.841 320.378 669.473C320.094 669.799 319.765 670.176 319.419 670.576C318.365 671.768 317.588 672.787 317.64 672.925C317.83 673.409 320.68 675.361 322.338 676.156C324.359 677.123 325.638 677.469 327.815 677.676C330.527 677.935 332.945 677.572 335.174 676.553C338.991 674.826 341.945 671.267 342.74 667.501C343.12 665.704 342.999 662.647 342.481 661.109C340.995 656.721 336.625 653.094 331.546 652.057C330.82 651.902 329.974 651.781 329.68 651.781C329.179 651.781 329.162 651.763 329.266 651.124C329.317 650.779 329.49 649.552 329.646 648.412L329.939 646.339L335.346 646.287L340.736 646.253V640.206H333.066C328.834 640.206 325.344 640.258 325.31 640.327Z" fill="white"/>
<path fill-rule="evenodd" clip-rule="evenodd" d="M234.149 273.008C234.149 271.505 234.201 271.091 234.443 270.832C234.857 270.365 235.721 270.486 235.997 271.039C236.136 271.315 236.222 272.283 236.222 273.803C236.222 276.066 238.554 315.229 238.692 315.367C238.779 315.453 241.992 311.618 244.376 308.612C248.919 302.877 252.754 297.142 254.188 293.928C255.881 290.145 255.777 287.951 253.791 286.103C252.737 285.135 251.925 284.807 250.56 284.807C249.196 284.79 248.349 285.187 247.33 286.276C246.483 287.208 245.931 288.608 245.671 290.473L245.499 291.855L244.186 290.543C243.46 289.834 242.251 288.85 241.491 288.349C240.731 287.865 239.971 287.364 239.781 287.226C239.487 287.018 239.487 286.967 239.919 285.896C241.37 282.32 244.67 279.469 248.228 278.726C253.843 277.552 259.422 280.748 261.305 286.224C261.634 287.174 261.703 287.709 261.685 289.437C261.685 291.337 261.634 291.631 261.115 293.065C259.941 296.295 256.347 302.67 253.221 307.023C252.426 308.146 251.77 309.113 251.77 309.148C251.77 309.182 254.257 309.217 257.298 309.217H262.826V315.954H238.641L238.744 317.457C238.802 318.165 239.826 334.923 241.17 356.917C241.433 361.228 241.709 365.739 241.992 370.37L245.136 421.764L241.456 449.231C239.435 464.329 237.777 476.802 237.777 476.906C237.777 477.044 238.019 477.13 238.433 477.13C239.314 477.13 241.422 477.735 242.631 478.339C243.579 478.808 244.446 479.366 245.226 480H228.76C229.684 479.229 230.726 478.578 231.869 478.08C232.266 477.908 232.594 477.683 232.594 477.562C232.594 477.458 230.919 464.865 228.88 449.594L225.166 421.833L229.658 348.345C232.128 307.939 234.149 274.028 234.149 273.008ZM246.999 520.569C247.046 520.715 247.093 520.862 247.14 521.009L253.082 539.579L281.258 581.73C296.754 604.914 309.727 624.417 310.073 625.056C310.833 626.438 311.299 626.749 311.973 626.317C312.699 625.834 312.699 625.54 311.973 624.227C311.61 623.571 302.126 602.063 290.915 576.427L270.513 529.854L246.999 501.5V520.569ZM246.999 498.238C248.953 495.855 249.904 493.148 249.904 490C249.904 486.867 248.872 484.013 246.999 481.755V498.238Z" fill="white"/>
<path fill-rule="evenodd" clip-rule="evenodd" d="M226.649 251.361C227.397 251.323 227.991 251.292 228.276 251.276C230.643 251.156 248.194 251.328 250.82 251.501C270.116 252.797 285.992 255.509 303.25 260.449C334.518 269.381 364.524 285.326 389.798 306.384C435.732 344.665 465.687 398.65 473.651 457.471C478.643 494.319 475.085 531.806 463.251 566.788C453.612 595.24 438.22 622.258 418.561 645.216C408.921 656.479 397.641 667.415 386.256 676.501C348.338 706.802 302.559 724.768 254.534 728.205C252.021 728.386 249.51 728.528 247 728.631V712.039C251.156 711.91 254.479 711.647 259.7 711.12C315.325 705.471 367.012 678.712 404.153 636.32C426.473 610.839 442.729 580.608 451.539 548.217C455.512 533.602 457.879 519.091 458.933 502.87C459.226 498.378 459.226 481.622 458.933 477.13C457.844 460.529 455.443 446.018 451.28 430.833C444.093 404.661 431.431 378.904 414.985 357.034C408.248 348.051 402.288 341.21 394.03 332.97C385.79 324.713 378.949 318.753 369.966 312.015C348.096 295.57 322.339 282.907 296.167 275.721C281.138 271.592 267.18 269.277 250.388 268.085C247.849 267.912 230.85 267.74 228.449 267.86C219.984 268.31 215.182 268.707 208.928 269.502C189.822 271.903 170.37 277.034 152.698 284.341C130.914 293.341 110.495 305.831 92.8402 320.964C57.3573 351.385 32.5503 391.36 21.3388 436.154C18.3157 448.246 16.2773 460.84 15.3617 472.984C15.1883 475.325 15.051 477.664 14.9498 480H-1.64453C-1.54981 476.766 -1.36851 474.149 -1.03232 470.047C3.02731 420.537 22.5308 373.549 54.8178 335.475C62.7643 326.112 73.1121 315.764 82.4752 307.818C122.26 274.097 172.063 254.213 223.612 251.518C224.669 251.462 225.766 251.406 226.649 251.361Z" fill="white"/>
<rect x="1" y="472" width="245" height="8" fill="white"/>
<rect x="239" y="729" width="257" height="8" transform="rotate(-90 239 729)" fill="white"/>
<path d="M1399.59 310.469V380H1209.96V351.556C1249.57 319.529 1282.65 287.081 1309.2 254.212C1335.75 220.922 1349.02 192.899 1349.02 170.143C1349.02 154.973 1345.44 142.963 1338.28 134.114C1331.12 125.264 1317.84 120.84 1298.46 120.84C1282.02 120.84 1265.59 124.421 1249.15 131.585V177.728H1216.28V113.254C1245.36 97.2411 1274.23 89.2346 1302.88 89.2346C1330.69 89.2346 1351.97 96.1876 1366.72 110.094C1381.47 123.579 1388.85 142.331 1388.85 166.351C1388.85 193.742 1375.36 224.293 1348.39 258.005C1321.84 291.717 1292.56 321.426 1260.53 347.131V348.395H1366.72V310.469H1399.59ZM1589.17 342.074H1431.14V314.262L1596.12 95.5555H1627.09V310.469H1665.02V342.074H1627.09V417.926H1589.17V342.074ZM1473.49 310.469H1589.17V157.501H1587.9L1473.49 309.205V310.469ZM1905.03 436.889C1906.3 410.341 1910.51 383.16 1917.67 355.348C1925.26 327.536 1934.32 300.356 1944.85 273.807C1955.39 246.838 1966.98 221.132 1979.62 196.691C1992.26 171.829 2004.69 149.073 2016.91 128.425L2016.28 127.16H1887.33V169.511H1854.46V95.5555H2056.73V122.736C2041.99 146.756 2028.08 171.407 2015.02 196.691C2002.37 221.975 1991 247.681 1980.88 273.807C1971.19 299.934 1963.39 326.693 1957.5 354.084C1951.6 381.053 1948.43 408.655 1948.01 436.889H1905.03Z" fill="#88C250"/>
<path d="M1810.42 38.6667H1843.29L1709.28 455.852H1676.41L1810.42 38.6667Z" fill="#DEF2CA"/>
<path d="M782.594 650V637.196C785.568 637.067 788.026 636.679 789.966 636.032C792.035 635.385 793.587 633.898 794.622 631.57C795.786 629.242 796.368 625.491 796.368 620.318V546.016C796.368 542.524 796.432 539.161 796.562 535.928C796.82 532.695 797.014 530.237 797.144 528.556C795.074 528.685 792.488 528.815 789.384 528.944C786.28 528.944 784.016 529.009 782.594 529.138V514.2H838.272V527.004C835.426 527.133 832.969 527.521 830.9 528.168C828.83 528.815 827.214 530.302 826.05 532.63C825.015 534.829 824.498 538.579 824.498 543.882V574.146H877.848V546.016C877.848 542.524 877.912 539.161 878.042 535.928C878.171 532.695 878.365 530.237 878.624 528.556C876.554 528.685 873.968 528.815 870.864 528.944C867.76 528.944 865.496 529.009 864.074 529.138V514.2H919.752V527.004C916.906 527.133 914.449 527.521 912.38 528.168C910.31 528.815 908.694 530.302 907.53 532.63C906.495 534.829 905.978 538.579 905.978 543.882V618.184C905.978 621.676 905.913 625.039 905.784 628.272C905.654 631.505 905.46 633.963 905.202 635.644C907.271 635.385 909.858 635.256 912.962 635.256C916.195 635.127 918.458 635.062 919.752 635.062V650H864.074V637.196C867.048 637.067 869.506 636.679 871.446 636.032C873.515 635.385 875.067 633.898 876.102 631.57C877.266 629.242 877.848 625.491 877.848 620.318V588.89L824.498 589.472V618.184C824.498 621.676 824.433 625.039 824.304 628.272C824.174 631.505 823.98 633.963 823.722 635.644C825.791 635.385 828.378 635.256 831.482 635.256C834.715 635.127 836.978 635.062 838.272 635.062V650H782.594ZM978.199 653.104C968.757 653.104 960.415 651.035 953.173 646.896C945.93 642.628 940.304 636.679 936.295 629.048C932.285 621.288 930.281 612.17 930.281 601.694C930.281 592.641 932.285 584.169 936.295 576.28C940.304 568.391 945.93 562.053 953.173 557.268C960.545 552.353 969.081 549.896 978.781 549.896C984.213 549.896 989.515 550.672 994.689 552.224C999.862 553.647 1004.52 556.169 1008.66 559.79C1012.92 563.411 1016.29 568.326 1018.74 574.534C1021.33 580.742 1022.56 588.502 1022.43 597.814L958.799 598.978C958.799 605.962 959.639 612.235 961.321 617.796C963.131 623.357 966.041 627.755 970.051 630.988C974.06 634.221 979.427 635.838 986.153 635.838C990.033 635.838 994.624 634.803 999.927 632.734C1005.36 630.535 1010.27 626.72 1014.67 621.288L1023.4 629.436C1018.74 636.032 1013.77 641.076 1008.46 644.568C1003.16 647.931 997.857 650.194 992.555 651.358C987.381 652.522 982.596 653.104 978.199 653.104ZM959.963 585.398H995.659C995.529 577.379 993.977 571.753 991.003 568.52C988.028 565.157 984.277 563.476 979.751 563.476C974.06 563.476 969.598 565.545 966.365 569.684C963.131 573.693 960.997 578.931 959.963 585.398ZM1090.54 650C1090.28 648.189 1090.09 646.702 1089.96 645.538C1089.96 644.245 1089.89 642.757 1089.77 641.076C1085.37 645.473 1080.71 648.577 1075.8 650.388C1070.88 652.199 1065.9 653.104 1060.86 653.104C1052.58 653.104 1046.12 650.647 1041.46 645.732C1036.8 640.817 1034.48 634.674 1034.48 627.302C1034.48 621.094 1036.03 615.791 1039.13 611.394C1042.36 606.997 1046.57 603.44 1051.74 600.724C1057.04 597.879 1062.86 595.745 1069.2 594.322C1075.67 592.77 1082.13 591.865 1088.6 591.606V581.518C1088.6 576.474 1087.57 572.206 1085.5 568.714C1083.56 565.222 1079.94 563.605 1074.63 563.864C1069.2 564.123 1064.8 565.933 1061.44 569.296C1062.48 570.46 1063.12 571.753 1063.38 573.176C1063.64 574.469 1063.77 575.633 1063.77 576.668C1063.77 579.255 1062.73 581.971 1060.67 584.816C1058.6 587.532 1055.3 588.825 1050.77 588.696C1046.89 588.567 1043.92 587.209 1041.85 584.622C1039.78 582.035 1038.74 578.996 1038.74 575.504C1038.74 570.331 1040.55 565.869 1044.18 562.118C1047.93 558.238 1052.91 555.263 1059.11 553.194C1065.32 550.995 1072.18 549.896 1079.68 549.896C1091.06 549.896 1099.85 552.871 1106.06 558.82C1112.4 564.64 1115.57 574.017 1115.57 586.95C1115.57 591.347 1115.57 595.098 1115.57 598.202C1115.57 601.306 1115.5 604.41 1115.37 607.514C1115.37 610.618 1115.37 614.369 1115.37 618.766C1115.37 620.577 1115.31 623.163 1115.18 626.526C1115.05 629.759 1114.86 632.863 1114.6 635.838C1116.8 635.579 1119.12 635.45 1121.58 635.45C1124.04 635.321 1125.91 635.256 1127.21 635.256V650H1090.54ZM1088.41 605.38C1081.16 606.027 1074.89 607.902 1069.59 611.006C1064.42 614.11 1061.89 618.443 1062.02 624.004C1062.15 627.625 1063.32 630.212 1065.52 631.764C1067.71 633.316 1070.24 634.092 1073.08 634.092C1076.06 634.092 1078.84 633.445 1081.42 632.152C1084.01 630.859 1086.34 629.177 1088.41 627.108V605.38ZM1135.24 637.39C1140.67 637.39 1143.91 635.838 1144.94 632.734C1146.11 629.501 1146.69 625.297 1146.69 620.124V540.39C1146.69 538.062 1146.75 535.411 1146.88 532.436C1147.01 529.332 1147.2 526.357 1147.46 523.512C1145.39 523.641 1142.94 523.771 1140.09 523.9C1137.38 523.9 1135.31 523.965 1133.88 524.094V509.35C1142.94 509.35 1149.86 508.703 1154.64 507.41C1159.43 506.117 1162.47 504.823 1163.76 503.53H1174.24V618.766C1174.24 620.577 1174.17 623.163 1174.04 626.526C1173.91 629.759 1173.72 632.863 1173.46 635.838C1175.66 635.579 1177.99 635.45 1180.44 635.45C1182.9 635.321 1184.78 635.256 1186.07 635.256V650H1135.24V637.39ZM1236.44 653.104C1232.56 653.104 1228.8 652.651 1225.18 651.746C1221.69 650.841 1218.46 649.159 1215.48 646.702C1212.64 644.115 1210.37 640.365 1208.69 635.45C1207.01 630.535 1206.17 624.004 1206.17 615.856L1206.56 569.102H1193.37V553C1197.38 552.871 1201.26 551.513 1205.01 548.926C1208.76 546.339 1211.93 542.977 1214.51 538.838C1217.23 534.699 1219.04 530.367 1219.95 525.84H1234.3L1234.11 553H1258.75V567.938L1234.11 568.52L1233.91 616.244C1233.91 619.219 1234.17 622.193 1234.69 625.168C1235.34 628.013 1236.5 630.406 1238.18 632.346C1239.86 634.157 1242.32 635.062 1245.55 635.062C1247.36 635.062 1249.82 634.415 1252.93 633.122C1256.16 631.829 1259.59 628.595 1263.21 623.422L1272.52 632.152C1269.03 637.325 1265.41 641.335 1261.66 644.18C1257.9 647.025 1254.28 649.095 1250.79 650.388C1247.43 651.681 1244.45 652.457 1241.87 652.716C1239.28 652.975 1237.47 653.104 1236.44 653.104ZM1335.97 637.39C1341.41 637.39 1344.7 635.838 1345.87 632.734C1347.03 629.501 1347.61 625.297 1347.61 620.124L1347.42 592.576C1347.42 576.021 1342.18 567.744 1331.71 567.744C1328.47 567.744 1325.24 568.455 1322.01 569.878C1318.9 571.301 1316.25 572.982 1314.05 574.922V618.766C1314.05 620.577 1313.99 623.163 1313.86 626.526C1313.73 629.759 1313.53 632.863 1313.28 635.838C1315.47 635.579 1317.8 635.45 1320.26 635.45C1322.72 635.321 1324.59 635.256 1325.89 635.256V650H1275.06V637.39C1280.49 637.39 1283.72 635.838 1284.76 632.734C1285.92 629.501 1286.5 625.297 1286.5 620.124V540.39C1286.5 538.062 1286.57 535.411 1286.7 532.436C1286.83 529.332 1287.02 526.357 1287.28 523.512C1285.21 523.641 1282.75 523.771 1279.91 523.9C1277.19 523.9 1275.12 523.965 1273.7 524.094V509.35C1282.75 509.35 1289.67 508.703 1294.46 507.41C1299.24 506.117 1302.28 504.823 1303.58 503.53H1314.05V560.76C1316.64 558.691 1319.61 556.88 1322.98 555.328C1326.34 553.647 1329.77 552.353 1333.26 551.448C1336.75 550.413 1339.79 549.896 1342.38 549.896C1354.27 549.896 1362.68 553.323 1367.6 560.178C1372.51 566.903 1375.03 577.767 1375.16 592.77V618.766C1375.16 620.577 1375.1 623.163 1374.97 626.526C1374.84 629.759 1374.64 632.863 1374.39 635.838C1376.46 635.579 1378.72 635.45 1381.18 635.45C1383.63 635.321 1385.57 635.256 1387 635.256V650H1335.97V637.39ZM1551.47 557.656C1547.98 536.187 1537.11 525.323 1518.88 525.064C1512.15 525.064 1506.27 526.616 1501.22 529.72C1496.18 532.824 1491.97 536.963 1488.61 542.136C1485.38 547.309 1482.92 553.194 1481.24 559.79C1479.69 566.386 1478.91 573.176 1478.91 580.16C1478.91 591.283 1480.46 601.177 1483.57 609.842C1486.8 618.378 1491.46 625.103 1497.54 630.018C1503.61 634.933 1510.99 637.39 1519.65 637.39C1527.8 637.39 1535.88 635.321 1543.9 631.182C1551.92 626.914 1558.65 621.029 1564.08 613.528L1573.39 622.064C1567.05 630.729 1560.39 637.325 1553.41 641.852C1546.42 646.249 1539.57 649.224 1532.84 650.776C1526.25 652.328 1520.3 653.104 1515 653.104C1505.04 653.104 1495.98 651.358 1487.84 647.866C1479.69 644.245 1472.64 639.33 1466.69 633.122C1460.87 626.785 1456.34 619.477 1453.11 611.2C1450.01 602.793 1448.45 593.74 1448.45 584.04C1448.45 575.245 1449.88 566.515 1452.72 557.85C1455.57 549.185 1459.77 541.36 1465.33 534.376C1471.02 527.263 1478.14 521.637 1486.67 517.498C1495.21 513.23 1505.1 511.096 1516.35 511.096C1521.4 511.096 1526.89 511.937 1532.84 513.618C1538.92 515.17 1544.61 517.498 1549.92 520.602L1549.14 512.454H1564.08V557.656H1551.47ZM1637.11 650C1636.85 648.189 1636.66 646.702 1636.53 645.538C1636.53 644.245 1636.47 642.757 1636.34 641.076C1631.94 645.473 1627.28 648.577 1622.37 650.388C1617.45 652.199 1612.48 653.104 1607.43 653.104C1599.15 653.104 1592.69 650.647 1588.03 645.732C1583.38 640.817 1581.05 634.674 1581.05 627.302C1581.05 621.094 1582.6 615.791 1585.7 611.394C1588.94 606.997 1593.14 603.44 1598.31 600.724C1603.62 597.879 1609.44 595.745 1615.77 594.322C1622.24 592.77 1628.71 591.865 1635.17 591.606V581.518C1635.17 576.474 1634.14 572.206 1632.07 568.714C1630.13 565.222 1626.51 563.605 1621.21 563.864C1615.77 564.123 1611.38 565.933 1608.01 569.296C1609.05 570.46 1609.69 571.753 1609.95 573.176C1610.21 574.469 1610.34 575.633 1610.34 576.668C1610.34 579.255 1609.31 581.971 1607.24 584.816C1605.17 587.532 1601.87 588.825 1597.34 588.696C1593.46 588.567 1590.49 587.209 1588.42 584.622C1586.35 582.035 1585.32 578.996 1585.32 575.504C1585.32 570.331 1587.13 565.869 1590.75 562.118C1594.5 558.238 1599.48 555.263 1605.69 553.194C1611.89 550.995 1618.75 549.896 1626.25 549.896C1637.63 549.896 1646.43 552.871 1652.63 558.82C1658.97 564.64 1662.14 574.017 1662.14 586.95C1662.14 591.347 1662.14 595.098 1662.14 598.202C1662.14 601.306 1662.07 604.41 1661.95 607.514C1661.95 610.618 1661.95 614.369 1661.95 618.766C1661.95 620.577 1661.88 623.163 1661.75 626.526C1661.62 629.759 1661.43 632.863 1661.17 635.838C1663.37 635.579 1665.7 635.45 1668.15 635.45C1670.61 635.321 1672.49 635.256 1673.78 635.256V650H1637.11ZM1634.98 605.38C1627.74 606.027 1621.46 607.902 1616.16 611.006C1610.99 614.11 1608.47 618.443 1608.6 624.004C1608.72 627.625 1609.89 630.212 1612.09 631.764C1614.29 633.316 1616.81 634.092 1619.65 634.092C1622.63 634.092 1625.41 633.445 1628 632.152C1630.58 630.859 1632.91 629.177 1634.98 627.108V605.38ZM1684.92 637.39C1690.22 637.39 1693.45 635.838 1694.62 632.734C1695.78 629.501 1696.36 625.297 1696.36 620.124V587.532C1696.36 585.204 1696.43 582.617 1696.56 579.772C1696.69 576.797 1696.88 573.887 1697.14 571.042C1695.07 571.171 1692.61 571.301 1689.77 571.43C1687.05 571.43 1684.98 571.495 1683.56 571.624V556.88H1691.32C1696.36 556.88 1700.96 556.233 1705.09 554.94C1709.36 553.647 1712.14 552.353 1713.44 551.06H1722.94C1723.2 552.353 1723.39 554.811 1723.52 558.432C1723.65 561.924 1723.72 565.028 1723.72 567.744C1728.89 561.277 1733.74 556.686 1738.27 553.97C1742.79 551.254 1747.39 549.896 1752.04 549.896C1756.57 549.896 1760.51 551.189 1763.88 553.776C1767.24 556.233 1768.92 560.307 1768.92 565.998C1768.92 567.938 1768.47 570.007 1767.56 572.206C1766.66 574.275 1765.23 576.021 1763.29 577.444C1761.35 578.867 1758.7 579.578 1755.34 579.578C1752.75 579.578 1750.1 578.802 1747.39 577.25C1744.67 575.698 1743.12 572.723 1742.73 568.326C1740.14 568.326 1737.56 569.425 1734.97 571.624C1732.38 573.693 1730.06 576.215 1727.99 579.19C1726.05 582.035 1724.69 584.687 1723.91 587.144V618.766C1723.91 620.577 1723.85 623.163 1723.72 626.526C1723.59 629.759 1723.39 632.863 1723.14 635.838C1725.21 635.579 1727.47 635.45 1729.93 635.45C1732.51 635.321 1734.45 635.256 1735.75 635.256V650H1684.92V637.39ZM1822.59 653.104C1813.15 653.104 1804.81 651.035 1797.57 646.896C1790.32 642.628 1784.7 636.679 1780.69 629.048C1776.68 621.288 1774.67 612.17 1774.67 601.694C1774.67 592.641 1776.68 584.169 1780.69 576.28C1784.7 568.391 1790.32 562.053 1797.57 557.268C1804.94 552.353 1813.47 549.896 1823.17 549.896C1828.61 549.896 1833.91 550.672 1839.08 552.224C1844.25 553.647 1848.91 556.169 1853.05 559.79C1857.32 563.411 1860.68 568.326 1863.14 574.534C1865.72 580.742 1866.95 588.502 1866.82 597.814L1803.19 598.978C1803.19 605.962 1804.03 612.235 1805.71 617.796C1807.52 623.357 1810.43 627.755 1814.44 630.988C1818.45 634.221 1823.82 635.838 1830.55 635.838C1834.43 635.838 1839.02 634.803 1844.32 632.734C1849.75 630.535 1854.67 626.72 1859.06 621.288L1867.79 629.436C1863.14 636.032 1858.16 641.076 1852.86 644.568C1847.55 647.931 1842.25 650.194 1836.95 651.358C1831.77 652.522 1826.99 653.104 1822.59 653.104ZM1804.36 585.398H1840.05C1839.92 577.379 1838.37 571.753 1835.4 568.52C1832.42 565.157 1828.67 563.476 1824.14 563.476C1818.45 563.476 1813.99 565.545 1810.76 569.684C1807.52 573.693 1805.39 578.931 1804.36 585.398ZM1924.79 650V636.614C1928.41 636.614 1931.32 635.579 1933.52 633.51C1935.72 631.441 1937.53 628.725 1938.95 625.362C1940.5 621.999 1941.99 618.378 1943.41 614.498L1981.24 510.708H1994.82L2036.14 616.438C2036.92 618.378 2037.95 621.353 2039.25 625.362C2040.54 629.242 2041.32 632.669 2041.57 635.644C2043.77 635.385 2045.84 635.256 2047.78 635.256C2049.85 635.127 2051.53 635.062 2052.83 635.062V650H2000.64V637.196C2005.94 637.196 2008.92 635.579 2009.56 632.346C2010.21 628.983 2009.63 624.909 2007.82 620.124L2003.94 609.454L1961.84 610.23L1958.74 619.348C1958.09 621.029 1957.12 623.551 1955.83 626.914C1954.66 630.147 1953.56 632.863 1952.53 635.062C1954.6 634.803 1957.06 634.674 1959.9 634.674C1962.88 634.545 1965.01 634.48 1966.3 634.48V650H1924.79ZM1966.69 595.68H1999.09L1990.16 571.43C1988.48 566.774 1987 562.118 1985.7 557.462C1984.41 552.677 1983.44 548.473 1982.79 544.852H1982.6C1982.08 547.051 1981.31 550.349 1980.27 554.746C1979.24 559.143 1977.62 564.381 1975.42 570.46L1966.69 595.68ZM2102.12 702.574C2091 702.574 2082.21 701.345 2075.74 698.888C2069.27 696.56 2064.68 693.456 2061.97 689.576C2059.25 685.696 2057.89 681.557 2057.89 677.16C2057.89 673.151 2059.19 669.077 2061.77 664.938C2064.49 660.799 2069.34 657.437 2076.32 654.85C2071.02 653.427 2067.27 651.164 2065.07 648.06C2063 644.827 2061.97 641.399 2061.97 637.778C2061.97 634.415 2063.32 630.665 2066.04 626.526C2068.76 622.258 2073.67 619.025 2080.78 616.826C2075.35 614.627 2070.89 611.2 2067.4 606.544C2063.91 601.888 2062.03 596.262 2061.77 589.666C2061.51 581.906 2063.45 575.051 2067.59 569.102C2071.73 563.023 2077.16 558.303 2083.89 554.94C2090.61 551.577 2097.66 549.896 2105.03 549.896C2108.4 549.896 2112.28 550.349 2116.67 551.254C2121.07 552.159 2124.89 553.711 2128.12 555.91C2129.54 551.901 2131.35 548.15 2133.55 544.658C2135.88 541.037 2138.66 538.127 2141.89 535.928C2145.13 533.6 2148.75 532.436 2152.76 532.436C2157.16 532.436 2160.45 533.6 2162.65 535.928C2164.98 538.127 2166.14 541.101 2166.14 544.852C2166.14 546.404 2165.76 548.15 2164.98 550.09C2164.33 551.901 2163.1 553.453 2161.29 554.746C2159.61 556.039 2157.22 556.686 2154.12 556.686C2152.18 556.686 2150.24 555.975 2148.3 554.552C2146.36 553 2145.19 551.189 2144.8 549.12C2143.12 549.637 2141.44 551.319 2139.76 554.164C2138.08 557.009 2137.11 559.531 2136.85 561.73C2144.48 568.326 2148.3 576.668 2148.3 586.756C2148.3 594.257 2146.16 600.918 2141.89 606.738C2137.76 612.429 2132.32 616.955 2125.6 620.318C2119 623.551 2111.89 625.168 2104.26 625.168C2102.58 625.168 2100.7 625.103 2098.63 624.974C2096.56 624.715 2094.56 624.586 2092.62 624.586C2089.77 624.586 2087.38 625.103 2085.44 626.138C2083.5 627.173 2082.53 628.595 2082.53 630.406C2082.53 632.863 2084.41 634.545 2088.16 635.45C2091.91 636.355 2098.31 637.067 2107.36 637.584C2117.32 638.101 2125.99 639.395 2133.36 641.464C2140.86 643.404 2146.68 646.508 2150.82 650.776C2154.96 655.044 2157.03 660.929 2157.03 668.43C2157.03 673.991 2155.41 678.841 2152.18 682.98C2148.94 687.248 2144.61 690.805 2139.18 693.65C2133.88 696.625 2127.99 698.823 2121.52 700.246C2115.06 701.798 2108.59 702.574 2102.12 702.574ZM2105.03 612.17C2108.53 612.17 2111.44 611.071 2113.76 608.872C2116.22 606.673 2118.03 603.893 2119.2 600.53C2120.49 597.167 2121.14 593.74 2121.14 590.248C2121.14 585.721 2120.55 581.389 2119.39 577.25C2118.23 572.982 2116.42 569.555 2113.96 566.968C2111.63 564.252 2108.59 562.894 2104.84 562.894C2099.67 562.894 2095.66 565.222 2092.81 569.878C2089.97 574.534 2088.54 579.837 2088.54 585.786C2088.54 590.313 2089.19 594.645 2090.48 598.784C2091.78 602.793 2093.65 606.027 2096.11 608.484C2098.57 610.941 2101.54 612.17 2105.03 612.17ZM2107.75 689.188C2116.93 689.188 2123.85 687.507 2128.51 684.144C2133.29 680.781 2135.69 677.289 2135.69 673.668C2135.69 665.908 2126.37 661.64 2107.75 660.864C2104.9 660.605 2101.61 660.411 2097.86 660.282C2094.11 660.153 2090.81 659.829 2087.96 659.312C2086.02 660.864 2084.53 662.804 2083.5 665.132C2082.47 667.46 2081.88 669.723 2081.75 671.922C2081.5 677.095 2083.69 681.234 2088.35 684.338C2093.14 687.571 2099.6 689.188 2107.75 689.188ZM2213.05 653.104C2203.61 653.104 2195.27 651.035 2188.03 646.896C2180.79 642.628 2175.16 636.679 2171.15 629.048C2167.14 621.288 2165.14 612.17 2165.14 601.694C2165.14 592.641 2167.14 584.169 2171.15 576.28C2175.16 568.391 2180.79 562.053 2188.03 557.268C2195.4 552.353 2203.94 549.896 2213.64 549.896C2219.07 549.896 2224.37 550.672 2229.54 552.224C2234.72 553.647 2239.37 556.169 2243.51 559.79C2247.78 563.411 2251.14 568.326 2253.6 574.534C2256.19 580.742 2257.42 588.502 2257.29 597.814L2193.65 598.978C2193.65 605.962 2194.49 612.235 2196.18 617.796C2197.99 623.357 2200.9 627.755 2204.91 630.988C2208.92 634.221 2214.28 635.838 2221.01 635.838C2224.89 635.838 2229.48 634.803 2234.78 632.734C2240.21 630.535 2245.13 626.72 2249.53 621.288L2258.26 629.436C2253.6 636.032 2248.62 641.076 2243.32 644.568C2238.02 647.931 2232.71 650.194 2227.41 651.358C2222.24 652.522 2217.45 653.104 2213.05 653.104ZM2194.82 585.398H2230.51C2230.38 577.379 2228.83 571.753 2225.86 568.52C2222.88 565.157 2219.13 563.476 2214.61 563.476C2208.92 563.476 2204.45 565.545 2201.22 569.684C2197.99 573.693 2195.85 578.931 2194.82 585.398ZM2271.46 650V637.39C2276.77 637.39 2280 635.838 2281.16 632.734C2282.33 629.501 2282.91 625.297 2282.91 620.124V587.532C2282.91 585.204 2282.98 582.617 2283.1 579.772C2283.23 576.797 2283.43 573.887 2283.69 571.042C2281.62 571.171 2279.16 571.301 2276.31 571.43C2273.6 571.43 2271.53 571.495 2270.11 571.624V556.88C2279.03 556.88 2285.89 556.233 2290.67 554.94C2295.59 553.647 2298.69 552.353 2299.98 551.06H2309.49C2309.75 552.741 2309.88 553.97 2309.88 554.746C2309.88 555.522 2309.88 556.298 2309.88 557.074C2310.01 557.721 2310.26 558.949 2310.65 560.76C2313.24 558.691 2316.21 556.88 2319.58 555.328C2322.94 553.647 2326.3 552.353 2329.66 551.448C2333.03 550.413 2336 549.896 2338.59 549.896C2350.49 549.896 2358.89 553.323 2363.81 560.178C2368.85 566.903 2371.37 577.767 2371.37 592.77V618.766C2371.37 620.577 2371.31 623.163 2371.18 626.526C2371.05 629.759 2370.86 632.863 2370.6 635.838C2372.8 635.579 2375.13 635.45 2377.58 635.45C2380.04 635.321 2381.92 635.256 2383.21 635.256V650H2332.38V637.39C2337.81 637.39 2341.11 635.838 2342.27 632.734C2343.44 629.501 2344.02 625.297 2344.02 620.124L2343.83 592.576C2343.83 584.169 2342.6 577.961 2340.14 573.952C2337.81 569.813 2333.8 567.744 2328.11 567.744C2324.88 567.744 2321.65 568.455 2318.41 569.878C2315.31 571.301 2312.66 572.982 2310.46 574.922V618.766C2310.46 620.577 2310.39 623.163 2310.26 626.526C2310.14 629.759 2309.94 632.863 2309.68 635.838C2311.75 635.579 2314.02 635.45 2316.47 635.45C2319.06 635.321 2321 635.256 2322.29 635.256V650H2271.46ZM2440.58 653.104C2431.92 653.104 2423.96 651.164 2416.72 647.284C2409.48 643.404 2403.66 637.778 2399.26 630.406C2394.99 623.034 2392.86 614.11 2392.86 603.634C2392.86 593.805 2394.99 584.881 2399.26 576.862C2403.53 568.714 2409.41 562.183 2416.91 557.268C2424.55 552.353 2433.34 549.896 2443.3 549.896C2451.58 549.896 2458.43 551.189 2463.86 553.776C2469.42 556.233 2473.56 559.531 2476.28 563.67C2479.12 567.679 2480.55 571.947 2480.55 576.474C2480.55 580.225 2479.38 583.587 2477.05 586.562C2474.86 589.407 2471.69 590.895 2467.55 591.024C2462.63 591.153 2459.21 589.795 2457.27 586.95C2455.33 583.975 2454.36 581.13 2454.36 578.414C2454.36 577.25 2454.55 575.892 2454.94 574.34C2455.33 572.659 2455.91 571.171 2456.68 569.878C2455.26 567.033 2453 565.222 2449.89 564.446C2446.79 563.67 2444.33 563.347 2442.52 563.476C2436.31 563.864 2431.21 566.968 2427.2 572.788C2423.19 578.608 2421.18 587.015 2421.18 598.008C2421.18 604.475 2421.96 610.553 2423.51 616.244C2425.19 621.805 2427.91 626.397 2431.66 630.018C2435.41 633.639 2440.45 635.579 2446.79 635.838C2452.22 635.967 2457.53 634.674 2462.7 631.958C2467.87 629.242 2472.27 625.556 2475.89 620.9L2484.81 629.63C2480.16 636.097 2475.31 641.011 2470.26 644.374C2465.22 647.737 2460.18 650 2455.13 651.164C2450.22 652.457 2445.37 653.104 2440.58 653.104ZM2515.97 702.574C2511.05 702.574 2506.85 701.087 2503.36 698.112C2499.99 695.267 2498.31 691.451 2498.31 686.666C2498.31 683.174 2499.41 680.07 2501.61 677.354C2503.94 674.767 2506.91 673.409 2510.53 673.28C2513.38 673.151 2515.77 674.056 2517.71 675.996C2519.78 678.065 2520.82 680.846 2520.82 684.338C2520.82 684.726 2520.82 685.114 2520.82 685.502C2520.82 685.89 2520.75 686.343 2520.62 686.86C2520.88 686.86 2521.2 686.795 2521.59 686.666C2523.92 685.89 2526.51 682.527 2529.35 676.578C2532.33 670.499 2534.91 663.321 2537.11 655.044L2506.46 593.546C2502.84 586.303 2500.45 580.871 2499.28 577.25C2498.25 573.499 2497.54 570.201 2497.15 567.356L2488.22 567.744V553H2536.53V565.416C2531.75 565.933 2529.09 567.744 2528.58 570.848C2528.19 573.952 2528.77 577.185 2530.32 580.548L2549.33 624.004C2550.63 620.641 2552.31 615.468 2554.38 608.484C2556.45 601.371 2558.91 593.675 2561.75 585.398C2562.53 582.941 2563.63 579.837 2565.05 576.086C2566.6 572.206 2568.22 569.231 2569.9 567.162L2558.84 567.744V553H2593.37V565.416C2589.36 566.321 2586 568.779 2583.28 572.788C2580.7 576.797 2578.37 581.712 2576.3 587.532L2552.05 656.79C2548.43 667.266 2545 675.867 2541.77 682.592C2538.54 689.447 2534.91 694.491 2530.9 697.724C2526.9 700.957 2521.92 702.574 2515.97 702.574Z" fill="#006838"/>
<path d="M1399.59 310.469V380H1209.96V351.556C1249.57 319.529 1282.65 287.081 1309.2 254.212C1335.75 220.922 1349.02 192.899 1349.02 170.143C1349.02 154.973 1345.44 142.963 1338.28 134.114C1331.12 125.264 1317.84 120.84 1298.46 120.84C1282.02 120.84 1265.59 124.421 1249.15 131.585V177.728H1216.28V113.254C1245.36 97.2411 1274.23 89.2346 1302.88 89.2346C1330.69 89.2346 1351.97 96.1876 1366.72 110.094C1381.47 123.579 1388.85 142.331 1388.85 166.351C1388.85 193.742 1375.36 224.293 1348.39 258.005C1321.84 291.717 1292.56 321.426 1260.53 347.131V348.395H1366.72V310.469H1399.59ZM1589.17 342.074H1431.14V314.262L1596.12 95.5555H1627.09V310.469H1665.02V342.074H1627.09V417.926H1589.17V342.074ZM1473.49 310.469H1589.17V157.501H1587.9L1473.49 309.205V310.469ZM1905.03 436.889C1906.3 410.341 1910.51 383.16 1917.67 355.348C1925.26 327.536 1934.32 300.356 1944.85 273.807C1955.39 246.838 1966.98 221.132 1979.62 196.691C1992.26 171.829 2004.69 149.073 2016.91 128.425L2016.28 127.16H1887.33V169.511H1854.46V95.5555H2056.73V122.736C2041.99 146.756 2028.08 171.407 2015.02 196.691C2002.37 221.975 1991 247.681 1980.88 273.807C1971.19 299.934 1963.39 326.693 1957.5 354.084C1951.6 381.053 1948.43 408.655 1948.01 436.889H1905.03Z" fill="#88C250"/>
<path d="M1810.42 38.6667H1843.29L1709.28 455.852H1676.41L1810.42 38.6667Z" fill="#DEF2CA"/>
<path d="M782.594 650V637.196C785.568 637.067 788.026 636.679 789.966 636.032C792.035 635.385 793.587 633.898 794.622 631.57C795.786 629.242 796.368 625.491 796.368 620.318V546.016C796.368 542.524 796.432 539.161 796.562 535.928C796.82 532.695 797.014 530.237 797.144 528.556C795.074 528.685 792.488 528.815 789.384 528.944C786.28 528.944 784.016 529.009 782.594 529.138V514.2H838.272V527.004C835.426 527.133 832.969 527.521 830.9 528.168C828.83 528.815 827.214 530.302 826.05 532.63C825.015 534.829 824.498 538.579 824.498 543.882V574.146H877.848V546.016C877.848 542.524 877.912 539.161 878.042 535.928C878.171 532.695 878.365 530.237 878.624 528.556C876.554 528.685 873.968 528.815 870.864 528.944C867.76 528.944 865.496 529.009 864.074 529.138V514.2H919.752V527.004C916.906 527.133 914.449 527.521 912.38 528.168C910.31 528.815 908.694 530.302 907.53 532.63C906.495 534.829 905.978 538.579 905.978 543.882V618.184C905.978 621.676 905.913 625.039 905.784 628.272C905.654 631.505 905.46 633.963 905.202 635.644C907.271 635.385 909.858 635.256 912.962 635.256C916.195 635.127 918.458 635.062 919.752 635.062V650H864.074V637.196C867.048 637.067 869.506 636.679 871.446 636.032C873.515 635.385 875.067 633.898 876.102 631.57C877.266 629.242 877.848 625.491 877.848 620.318V588.89L824.498 589.472V618.184C824.498 621.676 824.433 625.039 824.304 628.272C824.174 631.505 823.98 633.963 823.722 635.644C825.791 635.385 828.378 635.256 831.482 635.256C834.715 635.127 836.978 635.062 838.272 635.062V650H782.594ZM978.199 653.104C968.757 653.104 960.415 651.035 953.173 646.896C945.93 642.628 940.304 636.679 936.295 629.048C932.285 621.288 930.281 612.17 930.281 601.694C930.281 592.641 932.285 584.169 936.295 576.28C940.304 568.391 945.93 562.053 953.173 557.268C960.545 552.353 969.081 549.896 978.781 549.896C984.213 549.896 989.515 550.672 994.689 552.224C999.862 553.647 1004.52 556.169 1008.66 559.79C1012.92 563.411 1016.29 568.326 1018.74 574.534C1021.33 580.742 1022.56 588.502 1022.43 597.814L958.799 598.978C958.799 605.962 959.639 612.235 961.321 617.796C963.131 623.357 966.041 627.755 970.051 630.988C974.06 634.221 979.427 635.838 986.153 635.838C990.033 635.838 994.624 634.803 999.927 632.734C1005.36 630.535 1010.27 626.72 1014.67 621.288L1023.4 629.436C1018.74 636.032 1013.77 641.076 1008.46 644.568C1003.16 647.931 997.857 650.194 992.555 651.358C987.381 652.522 982.596 653.104 978.199 653.104ZM959.963 585.398H995.659C995.529 577.379 993.977 571.753 991.003 568.52C988.028 565.157 984.277 563.476 979.751 563.476C974.06 563.476 969.598 565.545 966.365 569.684C963.131 573.693 960.997 578.931 959.963 585.398ZM1090.54 650C1090.28 648.189 1090.09 646.702 1089.96 645.538C1089.96 644.245 1089.89 642.757 1089.77 641.076C1085.37 645.473 1080.71 648.577 1075.8 650.388C1070.88 652.199 1065.9 653.104 1060.86 653.104C1052.58 653.104 1046.12 650.647 1041.46 645.732C1036.8 640.817 1034.48 634.674 1034.48 627.302C1034.48 621.094 1036.03 615.791 1039.13 611.394C1042.36 606.997 1046.57 603.44 1051.74 600.724C1057.04 597.879 1062.86 595.745 1069.2 594.322C1075.67 592.77 1082.13 591.865 1088.6 591.606V581.518C1088.6 576.474 1087.57 572.206 1085.5 568.714C1083.56 565.222 1079.94 563.605 1074.63 563.864C1069.2 564.123 1064.8 565.933 1061.44 569.296C1062.48 570.46 1063.12 571.753 1063.38 573.176C1063.64 574.469 1063.77 575.633 1063.77 576.668C1063.77 579.255 1062.73 581.971 1060.67 584.816C1058.6 587.532 1055.3 588.825 1050.77 588.696C1046.89 588.567 1043.92 587.209 1041.85 584.622C1039.78 582.035 1038.74 578.996 1038.74 575.504C1038.74 570.331 1040.55 565.869 1044.18 562.118C1047.93 558.238 1052.91 555.263 1059.11 553.194C1065.32 550.995 1072.18 549.896 1079.68 549.896C1091.06 549.896 1099.85 552.871 1106.06 558.82C1112.4 564.64 1115.57 574.017 1115.57 586.95C1115.57 591.347 1115.57 595.098 1115.57 598.202C1115.57 601.306 1115.5 604.41 1115.37 607.514C1115.37 610.618 1115.37 614.369 1115.37 618.766C1115.37 620.577 1115.31 623.163 1115.18 626.526C1115.05 629.759 1114.86 632.863 1114.6 635.838C1116.8 635.579 1119.12 635.45 1121.58 635.45C1124.04 635.321 1125.91 635.256 1127.21 635.256V650H1090.54ZM1088.41 605.38C1081.16 606.027 1074.89 607.902 1069.59 611.006C1064.42 614.11 1061.89 618.443 1062.02 624.004C1062.15 627.625 1063.32 630.212 1065.52 631.764C1067.71 633.316 1070.24 634.092 1073.08 634.092C1076.06 634.092 1078.84 633.445 1081.42 632.152C1084.01 630.859 1086.34 629.177 1088.41 627.108V605.38ZM1135.24 637.39C1140.67 637.39 1143.91 635.838 1144.94 632.734C1146.11 629.501 1146.69 625.297 1146.69 620.124V540.39C1146.69 538.062 1146.75 535.411 1146.88 532.436C1147.01 529.332 1147.2 526.357 1147.46 523.512C1145.39 523.641 1142.94 523.771 1140.09 523.9C1137.38 523.9 1135.31 523.965 1133.88 524.094V509.35C1142.94 509.35 1149.86 508.703 1154.64 507.41C1159.43 506.117 1162.47 504.823 1163.76 503.53H1174.24V618.766C1174.24 620.577 1174.17 623.163 1174.04 626.526C1173.91 629.759 1173.72 632.863 1173.46 635.838C1175.66 635.579 1177.99 635.45 1180.44 635.45C1182.9 635.321 1184.78 635.256 1186.07 635.256V650H1135.24V637.39ZM1236.44 653.104C1232.56 653.104 1228.8 652.651 1225.18 651.746C1221.69 650.841 1218.46 649.159 1215.48 646.702C1212.64 644.115 1210.37 640.365 1208.69 635.45C1207.01 630.535 1206.17 624.004 1206.17 615.856L1206.56 569.102H1193.37V553C1197.38 552.871 1201.26 551.513 1205.01 548.926C1208.76 546.339 1211.93 542.977 1214.51 538.838C1217.23 534.699 1219.04 530.367 1219.95 525.84H1234.3L1234.11 553H1258.75V567.938L1234.11 568.52L1233.91 616.244C1233.91 619.219 1234.17 622.193 1234.69 625.168C1235.34 628.013 1236.5 630.406 1238.18 632.346C1239.86 634.157 1242.32 635.062 1245.55 635.062C1247.36 635.062 1249.82 634.415 1252.93 633.122C1256.16 631.829 1259.59 628.595 1263.21 623.422L1272.52 632.152C1269.03 637.325 1265.41 641.335 1261.66 644.18C1257.9 647.025 1254.28 649.095 1250.79 650.388C1247.43 651.681 1244.45 652.457 1241.87 652.716C1239.28 652.975 1237.47 653.104 1236.44 653.104ZM1335.97 637.39C1341.41 637.39 1344.7 635.838 1345.87 632.734C1347.03 629.501 1347.61 625.297 1347.61 620.124L1347.42 592.576C1347.42 576.021 1342.18 567.744 1331.71 567.744C1328.47 567.744 1325.24 568.455 1322.01 569.878C1318.9 571.301 1316.25 572.982 1314.05 574.922V618.766C1314.05 620.577 1313.99 623.163 1313.86 626.526C1313.73 629.759 1313.53 632.863 1313.28 635.838C1315.47 635.579 1317.8 635.45 1320.26 635.45C1322.72 635.321 1324.59 635.256 1325.89 635.256V650H1275.06V637.39C1280.49 637.39 1283.72 635.838 1284.76 632.734C1285.92 629.501 1286.5 625.297 1286.5 620.124V540.39C1286.5 538.062 1286.57 535.411 1286.7 532.436C1286.83 529.332 1287.02 526.357 1287.28 523.512C1285.21 523.641 1282.75 523.771 1279.91 523.9C1277.19 523.9 1275.12 523.965 1273.7 524.094V509.35C1282.75 509.35 1289.67 508.703 1294.46 507.41C1299.24 506.117 1302.28 504.823 1303.58 503.53H1314.05V560.76C1316.64 558.691 1319.61 556.88 1322.98 555.328C1326.34 553.647 1329.77 552.353 1333.26 551.448C1336.75 550.413 1339.79 549.896 1342.38 549.896C1354.27 549.896 1362.68 553.323 1367.6 560.178C1372.51 566.903 1375.03 577.767 1375.16 592.77V618.766C1375.16 620.577 1375.1 623.163 1374.97 626.526C1374.84 629.759 1374.64 632.863 1374.39 635.838C1376.46 635.579 1378.72 635.45 1381.18 635.45C1383.63 635.321 1385.57 635.256 1387 635.256V650H1335.97V637.39ZM1551.47 557.656C1547.98 536.187 1537.11 525.323 1518.88 525.064C1512.15 525.064 1506.27 526.616 1501.22 529.72C1496.18 532.824 1491.97 536.963 1488.61 542.136C1485.38 547.309 1482.92 553.194 1481.24 559.79C1479.69 566.386 1478.91 573.176 1478.91 580.16C1478.91 591.283 1480.46 601.177 1483.57 609.842C1486.8 618.378 1491.46 625.103 1497.54 630.018C1503.61 634.933 1510.99 637.39 1519.65 637.39C1527.8 637.39 1535.88 635.321 1543.9 631.182C1551.92 626.914 1558.65 621.029 1564.08 613.528L1573.39 622.064C1567.05 630.729 1560.39 637.325 1553.41 641.852C1546.42 646.249 1539.57 649.224 1532.84 650.776C1526.25 652.328 1520.3 653.104 1515 653.104C1505.04 653.104 1495.98 651.358 1487.84 647.866C1479.69 644.245 1472.64 639.33 1466.69 633.122C1460.87 626.785 1456.34 619.477 1453.11 611.2C1450.01 602.793 1448.45 593.74 1448.45 584.04C1448.45 575.245 1449.88 566.515 1452.72 557.85C1455.57 549.185 1459.77 541.36 1465.33 534.376C1471.02 527.263 1478.14 521.637 1486.67 517.498C1495.21 513.23 1505.1 511.096 1516.35 511.096C1521.4 511.096 1526.89 511.937 1532.84 513.618C1538.92 515.17 1544.61 517.498 1549.92 520.602L1549.14 512.454H1564.08V557.656H1551.47ZM1637.11 650C1636.85 648.189 1636.66 646.702 1636.53 645.538C1636.53 644.245 1636.47 642.757 1636.34 641.076C1631.94 645.473 1627.28 648.577 1622.37 650.388C1617.45 652.199 1612.48 653.104 1607.43 653.104C1599.15 653.104 1592.69 650.647 1588.03 645.732C1583.38 640.817 1581.05 634.674 1581.05 627.302C1581.05 621.094 1582.6 615.791 1585.7 611.394C1588.94 606.997 1593.14 603.44 1598.31 600.724C1603.62 597.879 1609.44 595.745 1615.77 594.322C1622.24 592.77 1628.71 591.865 1635.17 591.606V581.518C1635.17 576.474 1634.14 572.206 1632.07 568.714C1630.13 565.222 1626.51 563.605 1621.21 563.864C1615.77 564.123 1611.38 565.933 1608.01 569.296C1609.05 570.46 1609.69 571.753 1609.95 573.176C1610.21 574.469 1610.34 575.633 1610.34 576.668C1610.34 579.255 1609.31 581.971 1607.24 584.816C1605.17 587.532 1601.87 588.825 1597.34 588.696C1593.46 588.567 1590.49 587.209 1588.42 584.622C1586.35 582.035 1585.32 578.996 1585.32 575.504C1585.32 570.331 1587.13 565.869 1590.75 562.118C1594.5 558.238 1599.48 555.263 1605.69 553.194C1611.89 550.995 1618.75 549.896 1626.25 549.896C1637.63 549.896 1646.43 552.871 1652.63 558.82C1658.97 564.64 1662.14 574.017 1662.14 586.95C1662.14 591.347 1662.14 595.098 1662.14 598.202C1662.14 601.306 1662.07 604.41 1661.95 607.514C1661.95 610.618 1661.95 614.369 1661.95 618.766C1661.95 620.577 1661.88 623.163 1661.75 626.526C1661.62 629.759 1661.43 632.863 1661.17 635.838C1663.37 635.579 1665.7 635.45 1668.15 635.45C1670.61 635.321 1672.49 635.256 1673.78 635.256V650H1637.11ZM1634.98 605.38C1627.74 606.027 1621.46 607.902 1616.16 611.006C1610.99 614.11 1608.47 618.443 1608.6 624.004C1608.72 627.625 1609.89 630.212 1612.09 631.764C1614.29 633.316 1616.81 634.092 1619.65 634.092C1622.63 634.092 1625.41 633.445 1628 632.152C1630.58 630.859 1632.91 629.177 1634.98 627.108V605.38ZM1684.92 637.39C1690.22 637.39 1693.45 635.838 1694.62 632.734C1695.78 629.501 1696.36 625.297 1696.36 620.124V587.532C1696.36 585.204 1696.43 582.617 1696.56 579.772C1696.69 576.797 1696.88 573.887 1697.14 571.042C1695.07 571.171 1692.61 571.301 1689.77 571.43C1687.05 571.43 1684.98 571.495 1683.56 571.624V556.88H1691.32C1696.36 556.88 1700.96 556.233 1705.09 554.94C1709.36 553.647 1712.14 552.353 1713.44 551.06H1722.94C1723.2 552.353 1723.39 554.811 1723.52 558.432C1723.65 561.924 1723.72 565.028 1723.72 567.744C1728.89 561.277 1733.74 556.686 1738.27 553.97C1742.79 551.254 1747.39 549.896 1752.04 549.896C1756.57 549.896 1760.51 551.189 1763.88 553.776C1767.24 556.233 1768.92 560.307 1768.92 565.998C1768.92 567.938 1768.47 570.007 1767.56 572.206C1766.66 574.275 1765.23 576.021 1763.29 577.444C1761.35 578.867 1758.7 579.578 1755.34 579.578C1752.75 579.578 1750.1 578.802 1747.39 577.25C1744.67 575.698 1743.12 572.723 1742.73 568.326C1740.14 568.326 1737.56 569.425 1734.97 571.624C1732.38 573.693 1730.06 576.215 1727.99 579.19C1726.05 582.035 1724.69 584.687 1723.91 587.144V618.766C1723.91 620.577 1723.85 623.163 1723.72 626.526C1723.59 629.759 1723.39 632.863 1723.14 635.838C1725.21 635.579 1727.47 635.45 1729.93 635.45C1732.51 635.321 1734.45 635.256 1735.75 635.256V650H1684.92V637.39ZM1822.59 653.104C1813.15 653.104 1804.81 651.035 1797.57 646.896C1790.32 642.628 1784.7 636.679 1780.69 629.048C1776.68 621.288 1774.67 612.17 1774.67 601.694C1774.67 592.641 1776.68 584.169 1780.69 576.28C1784.7 568.391 1790.32 562.053 1797.57 557.268C1804.94 552.353 1813.47 549.896 1823.17 549.896C1828.61 549.896 1833.91 550.672 1839.08 552.224C1844.25 553.647 1848.91 556.169 1853.05 559.79C1857.32 563.411 1860.68 568.326 1863.14 574.534C1865.72 580.742 1866.95 588.502 1866.82 597.814L1803.19 598.978C1803.19 605.962 1804.03 612.235 1805.71 617.796C1807.52 623.357 1810.43 627.755 1814.44 630.988C1818.45 634.221 1823.82 635.838 1830.55 635.838C1834.43 635.838 1839.02 634.803 1844.32 632.734C1849.75 630.535 1854.67 626.72 1859.06 621.288L1867.79 629.436C1863.14 636.032 1858.16 641.076 1852.86 644.568C1847.55 647.931 1842.25 650.194 1836.95 651.358C1831.77 652.522 1826.99 653.104 1822.59 653.104ZM1804.36 585.398H1840.05C1839.92 577.379 1838.37 571.753 1835.4 568.52C1832.42 565.157 1828.67 563.476 1824.14 563.476C1818.45 563.476 1813.99 565.545 1810.76 569.684C1807.52 573.693 1805.39 578.931 1804.36 585.398ZM1924.79 650V636.614C1928.41 636.614 1931.32 635.579 1933.52 633.51C1935.72 631.441 1937.53 628.725 1938.95 625.362C1940.5 621.999 1941.99 618.378 1943.41 614.498L1981.24 510.708H1994.82L2036.14 616.438C2036.92 618.378 2037.95 621.353 2039.25 625.362C2040.54 629.242 2041.32 632.669 2041.57 635.644C2043.77 635.385 2045.84 635.256 2047.78 635.256C2049.85 635.127 2051.53 635.062 2052.83 635.062V650H2000.64V637.196C2005.94 637.196 2008.92 635.579 2009.56 632.346C2010.21 628.983 2009.63 624.909 2007.82 620.124L2003.94 609.454L1961.84 610.23L1958.74 619.348C1958.09 621.029 1957.12 623.551 1955.83 626.914C1954.66 630.147 1953.56 632.863 1952.53 635.062C1954.6 634.803 1957.06 634.674 1959.9 634.674C1962.88 634.545 1965.01 634.48 1966.3 634.48V650H1924.79ZM1966.69 595.68H1999.09L1990.16 571.43C1988.48 566.774 1987 562.118 1985.7 557.462C1984.41 552.677 1983.44 548.473 1982.79 544.852H1982.6C1982.08 547.051 1981.31 550.349 1980.27 554.746C1979.24 559.143 1977.62 564.381 1975.42 570.46L1966.69 595.68ZM2102.12 702.574C2091 702.574 2082.21 701.345 2075.74 698.888C2069.27 696.56 2064.68 693.456 2061.97 689.576C2059.25 685.696 2057.89 681.557 2057.89 677.16C2057.89 673.151 2059.19 669.077 2061.77 664.938C2064.49 660.799 2069.34 657.437 2076.32 654.85C2071.02 653.427 2067.27 651.164 2065.07 648.06C2063 644.827 2061.97 641.399 2061.97 637.778C2061.97 634.415 2063.32 630.665 2066.04 626.526C2068.76 622.258 2073.67 619.025 2080.78 616.826C2075.35 614.627 2070.89 611.2 2067.4 606.544C2063.91 601.888 2062.03 596.262 2061.77 589.666C2061.51 581.906 2063.45 575.051 2067.59 569.102C2071.73 563.023 2077.16 558.303 2083.89 554.94C2090.61 551.577 2097.66 549.896 2105.03 549.896C2108.4 549.896 2112.28 550.349 2116.67 551.254C2121.07 552.159 2124.89 553.711 2128.12 555.91C2129.54 551.901 2131.35 548.15 2133.55 544.658C2135.88 541.037 2138.66 538.127 2141.89 535.928C2145.13 533.6 2148.75 532.436 2152.76 532.436C2157.16 532.436 2160.45 533.6 2162.65 535.928C2164.98 538.127 2166.14 541.101 2166.14 544.852C2166.14 546.404 2165.76 548.15 2164.98 550.09C2164.33 551.901 2163.1 553.453 2161.29 554.746C2159.61 556.039 2157.22 556.686 2154.12 556.686C2152.18 556.686 2150.24 555.975 2148.3 554.552C2146.36 553 2145.19 551.189 2144.8 549.12C2143.12 549.637 2141.44 551.319 2139.76 554.164C2138.08 557.009 2137.11 559.531 2136.85 561.73C2144.48 568.326 2148.3 576.668 2148.3 586.756C2148.3 594.257 2146.16 600.918 2141.89 606.738C2137.76 612.429 2132.32 616.955 2125.6 620.318C2119 623.551 2111.89 625.168 2104.26 625.168C2102.58 625.168 2100.7 625.103 2098.63 624.974C2096.56 624.715 2094.56 624.586 2092.62 624.586C2089.77 624.586 2087.38 625.103 2085.44 626.138C2083.5 627.173 2082.53 628.595 2082.53 630.406C2082.53 632.863 2084.41 634.545 2088.16 635.45C2091.91 636.355 2098.31 637.067 2107.36 637.584C2117.32 638.101 2125.99 639.395 2133.36 641.464C2140.86 643.404 2146.68 646.508 2150.82 650.776C2154.96 655.044 2157.03 660.929 2157.03 668.43C2157.03 673.991 2155.41 678.841 2152.18 682.98C2148.94 687.248 2144.61 690.805 2139.18 693.65C2133.88 696.625 2127.99 698.823 2121.52 700.246C2115.06 701.798 2108.59 702.574 2102.12 702.574ZM2105.03 612.17C2108.53 612.17 2111.44 611.071 2113.76 608.872C2116.22 606.673 2118.03 603.893 2119.2 600.53C2120.49 597.167 2121.14 593.74 2121.14 590.248C2121.14 585.721 2120.55 581.389 2119.39 577.25C2118.23 572.982 2116.42 569.555 2113.96 566.968C2111.63 564.252 2108.59 562.894 2104.84 562.894C2099.67 562.894 2095.66 565.222 2092.81 569.878C2089.97 574.534 2088.54 579.837 2088.54 585.786C2088.54 590.313 2089.19 594.645 2090.48 598.784C2091.78 602.793 2093.65 606.027 2096.11 608.484C2098.57 610.941 2101.54 612.17 2105.03 612.17ZM2107.75 689.188C2116.93 689.188 2123.85 687.507 2128.51 684.144C2133.29 680.781 2135.69 677.289 2135.69 673.668C2135.69 665.908 2126.37 661.64 2107.75 660.864C2104.9 660.605 2101.61 660.411 2097.86 660.282C2094.11 660.153 2090.81 659.829 2087.96 659.312C2086.02 660.864 2084.53 662.804 2083.5 665.132C2082.47 667.46 2081.88 669.723 2081.75 671.922C2081.5 677.095 2083.69 681.234 2088.35 684.338C2093.14 687.571 2099.6 689.188 2107.75 689.188ZM2213.05 653.104C2203.61 653.104 2195.27 651.035 2188.03 646.896C2180.79 642.628 2175.16 636.679 2171.15 629.048C2167.14 621.288 2165.14 612.17 2165.14 601.694C2165.14 592.641 2167.14 584.169 2171.15 576.28C2175.16 568.391 2180.79 562.053 2188.03 557.268C2195.4 552.353 2203.94 549.896 2213.64 549.896C2219.07 549.896 2224.37 550.672 2229.54 552.224C2234.72 553.647 2239.37 556.169 2243.51 559.79C2247.78 563.411 2251.14 568.326 2253.6 574.534C2256.19 580.742 2257.42 588.502 2257.29 597.814L2193.65 598.978C2193.65 605.962 2194.49 612.235 2196.18 617.796C2197.99 623.357 2200.9 627.755 2204.91 630.988C2208.92 634.221 2214.28 635.838 2221.01 635.838C2224.89 635.838 2229.48 634.803 2234.78 632.734C2240.21 630.535 2245.13 626.72 2249.53 621.288L2258.26 629.436C2253.6 636.032 2248.62 641.076 2243.32 644.568C2238.02 647.931 2232.71 650.194 2227.41 651.358C2222.24 652.522 2217.45 653.104 2213.05 653.104ZM2194.82 585.398H2230.51C2230.38 577.379 2228.83 571.753 2225.86 568.52C2222.88 565.157 2219.13 563.476 2214.61 563.476C2208.92 563.476 2204.45 565.545 2201.22 569.684C2197.99 573.693 2195.85 578.931 2194.82 585.398ZM2271.46 650V637.39C2276.77 637.39 2280 635.838 2281.16 632.734C2282.33 629.501 2282.91 625.297 2282.91 620.124V587.532C2282.91 585.204 2282.98 582.617 2283.1 579.772C2283.23 576.797 2283.43 573.887 2283.69 571.042C2281.62 571.171 2279.16 571.301 2276.31 571.43C2273.6 571.43 2271.53 571.495 2270.11 571.624V556.88C2279.03 556.88 2285.89 556.233 2290.67 554.94C2295.59 553.647 2298.69 552.353 2299.98 551.06H2309.49C2309.75 552.741 2309.88 553.97 2309.88 554.746C2309.88 555.522 2309.88 556.298 2309.88 557.074C2310.01 557.721 2310.26 558.949 2310.65 560.76C2313.24 558.691 2316.21 556.88 2319.58 555.328C2322.94 553.647 2326.3 552.353 2329.66 551.448C2333.03 550.413 2336 549.896 2338.59 549.896C2350.49 549.896 2358.89 553.323 2363.81 560.178C2368.85 566.903 2371.37 577.767 2371.37 592.77V618.766C2371.37 620.577 2371.31 623.163 2371.18 626.526C2371.05 629.759 2370.86 632.863 2370.6 635.838C2372.8 635.579 2375.13 635.45 2377.58 635.45C2380.04 635.321 2381.92 635.256 2383.21 635.256V650H2332.38V637.39C2337.81 637.39 2341.11 635.838 2342.27 632.734C2343.44 629.501 2344.02 625.297 2344.02 620.124L2343.83 592.576C2343.83 584.169 2342.6 577.961 2340.14 573.952C2337.81 569.813 2333.8 567.744 2328.11 567.744C2324.88 567.744 2321.65 568.455 2318.41 569.878C2315.31 571.301 2312.66 572.982 2310.46 574.922V618.766C2310.46 620.577 2310.39 623.163 2310.26 626.526C2310.14 629.759 2309.94 632.863 2309.68 635.838C2311.75 635.579 2314.02 635.45 2316.47 635.45C2319.06 635.321 2321 635.256 2322.29 635.256V650H2271.46ZM2440.58 653.104C2431.92 653.104 2423.96 651.164 2416.72 647.284C2409.48 643.404 2403.66 637.778 2399.26 630.406C2394.99 623.034 2392.86 614.11 2392.86 603.634C2392.86 593.805 2394.99 584.881 2399.26 576.862C2403.53 568.714 2409.41 562.183 2416.91 557.268C2424.55 552.353 2433.34 549.896 2443.3 549.896C2451.58 549.896 2458.43 551.189 2463.86 553.776C2469.42 556.233 2473.56 559.531 2476.28 563.67C2479.12 567.679 2480.55 571.947 2480.55 576.474C2480.55 580.225 2479.38 583.587 2477.05 586.562C2474.86 589.407 2471.69 590.895 2467.55 591.024C2462.63 591.153 2459.21 589.795 2457.27 586.95C2455.33 583.975 2454.36 581.13 2454.36 578.414C2454.36 577.25 2454.55 575.892 2454.94 574.34C2455.33 572.659 2455.91 571.171 2456.68 569.878C2455.26 567.033 2453 565.222 2449.89 564.446C2446.79 563.67 2444.33 563.347 2442.52 563.476C2436.31 563.864 2431.21 566.968 2427.2 572.788C2423.19 578.608 2421.18 587.015 2421.18 598.008C2421.18 604.475 2421.96 610.553 2423.51 616.244C2425.19 621.805 2427.91 626.397 2431.66 630.018C2435.41 633.639 2440.45 635.579 2446.79 635.838C2452.22 635.967 2457.53 634.674 2462.7 631.958C2467.87 629.242 2472.27 625.556 2475.89 620.9L2484.81 629.63C2480.16 636.097 2475.31 641.011 2470.26 644.374C2465.22 647.737 2460.18 650 2455.13 651.164C2450.22 652.457 2445.37 653.104 2440.58 653.104ZM2515.97 702.574C2511.05 702.574 2506.85 701.087 2503.36 698.112C2499.99 695.267 2498.31 691.451 2498.31 686.666C2498.31 683.174 2499.41 680.07 2501.61 677.354C2503.94 674.767 2506.91 673.409 2510.53 673.28C2513.38 673.151 2515.77 674.056 2517.71 675.996C2519.78 678.065 2520.82 680.846 2520.82 684.338C2520.82 684.726 2520.82 685.114 2520.82 685.502C2520.82 685.89 2520.75 686.343 2520.62 686.86C2520.88 686.86 2521.2 686.795 2521.59 686.666C2523.92 685.89 2526.51 682.527 2529.35 676.578C2532.33 670.499 2534.91 663.321 2537.11 655.044L2506.46 593.546C2502.84 586.303 2500.45 580.871 2499.28 577.25C2498.25 573.499 2497.54 570.201 2497.15 567.356L2488.22 567.744V553H2536.53V565.416C2531.75 565.933 2529.09 567.744 2528.58 570.848C2528.19 573.952 2528.77 577.185 2530.32 580.548L2549.33 624.004C2550.63 620.641 2552.31 615.468 2554.38 608.484C2556.45 601.371 2558.91 593.675 2561.75 585.398C2562.53 582.941 2563.63 579.837 2565.05 576.086C2566.6 572.206 2568.22 569.231 2569.9 567.162L2558.84 567.744V553H2593.37V565.416C2589.36 566.321 2586 568.779 2583.28 572.788C2580.7 576.797 2578.37 581.712 2576.3 587.532L2552.05 656.79C2548.43 667.266 2545 675.867 2541.77 682.592C2538.54 689.447 2534.91 694.491 2530.9 697.724C2526.9 700.957 2521.92 702.574 2515.97 702.574Z" fill="white"/>
</g>
<defs>
<clipPath id="clip0">
<rect width="2600" height="729" fill="white"/>
</clipPath>
<clipPath id="clip1">
<rect width="120" height="120" fill="white" transform="translate(303 67)"/>
</clipPath>
</defs>
</svg>
