<svg xmlns="http://www.w3.org/2000/svg" width="172.75" height="48" viewBox="0 0 172.75 48">
  <defs>
    <style>
      .cls-1 {
        fill: #fff;
        fill-rule: evenodd;
      }
    </style>
  </defs>
  <path class="cls-1" d="M49,17.225V30.061a2,2,0,0,1-1.968,2.024H36.821a4.393,4.393,0,0,1-3.843-2.307A34.967,34.967,0,0,0,20.446,16.667a5.351,5.351,0,0,1-2.576-4.582V2.024A2,2,0,0,1,19.838,0H32.284a2,2,0,0,1,1.968,2.029V15.2H47.028A2,2,0,0,1,49,17.225Z"/>
  <path class="cls-1" d="M16.806,34.761V45.338a2.671,2.671,0,0,0,2.67,2.673H30.883a2.671,2.671,0,0,0,2.67-2.673V38.854c0-4.382-4.607-10.443-6.846-12.984-5.515-6.256-11.033-9.71-21.878-9.71H0.667C4.3,23.034,13.55,26.816,19.534,27.042,12.792,27.126,3.779,23.624.013,16.689,0.249,26.43,6.969,32.225,16.806,32.924c5.883,0.418,11.608.249,13.611,3.219,1.013,1.5.915,2.85,0.915,4.689l0,4.505a0.446,0.446,0,0,1-.445.445H19.476a0.445,0.445,0,0,1-.445-0.445V37.864C19.031,35.007,16.806,34.761,16.806,34.761Z"/>
  <path id="Medileaf" class="cls-1" d="M78.826,33.57l0.18,1.65,1.74-.06q1.98-.06,3.015-0.06t2.175,0.06l0.99,0.06,0.15-1.56-2.31-.27c-0.02-.06-0.055-0.2-0.105-0.42s-0.13-.54-0.24-0.96a7.972,7.972,0,0,1-.2-0.87l-1.02-13.11a8.562,8.562,0,0,1,.09-1.41l0.09-.96,2.34-.18-0.18-1.77-1.35.12a14.933,14.933,0,0,1-1.785.12q-0.8,0-1.455-.06l-0.54-.06-0.18.18q-0.15.54-.765,2.55t-0.8,2.43l-4.77,11.79L69.2,19.47q-0.09-.24-0.87-3l-0.69-2.46-0.18-.18-0.78.06q-0.9.06-1.68,0.06a17.134,17.134,0,0,1-1.86-.12l-1.41-.12-0.15,1.68,2.28,0.24q0.03,0.42.165,1.185a7.4,7.4,0,0,1,.135,1.215l-0.78,13.11a5.863,5.863,0,0,0-.15.645q-0.09.465-.15,0.66t-0.135.525c-0.05.22-.085,0.36-0.105,0.42l-2.31.27,0.15,1.56,0.96-.06q1.14-.06,2.145-0.06t2.625,0.06l1.32,0.06,0.18-1.65-2.34-.18-0.09-1.2q-0.06-1.38-.06-1.95l0.54-11.04,6.81,15.9h1.11l6.81-15.87,0.63,11.01-0.15,3.15Zm20.91-1.35a8.494,8.494,0,0,1-4.47,1.23,3.351,3.351,0,0,1-2.955-1.62,7.193,7.193,0,0,1-1.125-3.84h8.97l0.51-.99q0-6.96-5.76-6.96a5.849,5.849,0,0,0-4.875,2.1,8.777,8.777,0,0,0-1.665,5.61,8.252,8.252,0,0,0,1.785,5.58,6.277,6.277,0,0,0,5.025,2.07,8.151,8.151,0,0,0,5.4-1.8Zm-1.86-6.24q-0.99,0-6.66.48,0.48-4.86,3.57-4.86a2.754,2.754,0,0,1,2.355,1.02,4.5,4.5,0,0,1,.765,2.76l-0.03.36v0.24Zm11.1-12.24,2.64,0.36c0.019,0.28.075,0.675,0.165,1.185a7.4,7.4,0,0,1,.135,1.215v4.23a11.738,11.738,0,0,0-3.75-.72,5.509,5.509,0,0,0-4.68,2.145,8.911,8.911,0,0,0-1.62,5.52,9.486,9.486,0,0,0,1.515,5.55A5.139,5.139,0,0,0,107.9,35.4a4.464,4.464,0,0,0,2.79-.945,4.619,4.619,0,0,0,1.56-1.785l0.39,2.43q1.53,0,2.91.06l0.99,0.06,0.18-1.68-2.07-.15a16.163,16.163,0,0,1-.3-2.4V17.4q0-1.98.09-3.03l0.12-1.89-0.18-.18-0.48.06a12.5,12.5,0,0,1-1.35.06q-0.81,0-3.42-.3Zm-2.955,18.825a4.728,4.728,0,0,1-1.11-2.13,11.853,11.853,0,0,1-.285-2.715,8.71,8.71,0,0,1,.915-4.185,2.991,2.991,0,0,1,2.805-1.7,6.628,6.628,0,0,1,3.57,1.05v6a5.286,5.286,0,0,1-.975,3.345,3.387,3.387,0,0,1-2.835,1.245A2.684,2.684,0,0,1,106.021,32.565Zm13.724-15.7a1.963,1.963,0,0,0,2.64,0,2.081,2.081,0,0,0,.45-1.425,2.039,2.039,0,0,0-.465-1.425,1.7,1.7,0,0,0-1.32-.51,1.625,1.625,0,0,0-1.3.525,2.117,2.117,0,0,0-.45,1.425A2.058,2.058,0,0,0,119.745,16.86Zm-2.19,4.77,2.28,0.36q0.03,0.42.165,1.185a7.4,7.4,0,0,1,.135,1.215v6.6A7.944,7.944,0,0,1,120,32.355q-0.135.765-.165,1.035l-2.31.36,0.15,1.47,0.96-.06q1.14-.06,2.16-0.06t2.7,0.06l1.44,0.06,0.18-1.65-2.34-.18-0.12-1.08a18.29,18.29,0,0,1-.09-2.22v-4.8q0-1.98.09-3.03l0.12-1.89-0.18-.18-0.48.06q-0.27.03-1.29,0.03a27.045,27.045,0,0,1-3.12-.27Zm8.04-7.89,2.28,0.36q0.03,0.42.165,1.185a7.4,7.4,0,0,1,.135,1.215V30.99a7.944,7.944,0,0,1-.135,1.365q-0.135.765-.165,1.035l-2.31.36,0.15,1.47,0.96-.06q1.14-.06,2.16-0.06t2.76,0.06l1.44,0.06,0.18-1.65-2.34-.18-0.12-1.08a18.29,18.29,0,0,1-.09-2.22V17.4q0-1.98.09-3.03l0.12-1.89-0.18-.18-0.48.06a12.328,12.328,0,0,1-1.335.06,30.677,30.677,0,0,1-3.135-.3Zm20.04,18.48a8.493,8.493,0,0,1-4.47,1.23,3.352,3.352,0,0,1-2.955-1.62,7.2,7.2,0,0,1-1.125-3.84h8.97l0.51-.99q0-6.96-5.76-6.96a5.85,5.85,0,0,0-4.875,2.1,8.777,8.777,0,0,0-1.665,5.61,8.253,8.253,0,0,0,1.785,5.58,6.278,6.278,0,0,0,5.025,2.07,8.15,8.15,0,0,0,5.4-1.8Zm-1.86-6.24q-0.99,0-6.66.48,0.48-4.86,3.57-4.86a2.754,2.754,0,0,1,2.355,1.02,4.5,4.5,0,0,1,.765,2.76l-0.03.36v0.24Zm6.93-1.29V23.61q0-.06.27-1.41a6.2,6.2,0,0,1,2.79-.57q2.819,0,2.82,4.14v0.99q-4.44.69-5.76,1.035a4.71,4.71,0,0,0-2.19,1.215,3.475,3.475,0,0,0-.87,2.565,3.675,3.675,0,0,0,1.1,2.76A3.894,3.894,0,0,0,151.7,35.4a6.487,6.487,0,0,0,3.165-.78,4.859,4.859,0,0,0,2.025-1.89l0.42,2.37q1.53,0,2.91.06l0.99,0.06,0.18-1.68-2.07-.15a16.3,16.3,0,0,1-.3-2.4V26.37a8.626,8.626,0,0,0-1.065-4.8q-1.065-1.56-3.84-1.56a21.16,21.16,0,0,0-5.475.72l0.33,4.05Zm1.59,4.41q0.99-.24,2.565-0.51t1.725-.3v1.8a3.967,3.967,0,0,1-1.35,2.43,3.6,3.6,0,0,1-2.4.96q-2.43,0-2.43-2.22a2.134,2.134,0,0,1,1.89-2.16h0Zm10.529-8.7q-0.54.15-.84,0.24l0.09,1.26h2.31v9.09a7.944,7.944,0,0,1-.135,1.365q-0.135.765-.165,1.035l-1.98.3,0.15,1.53,0.78-.06q0.96-.06,2.085-0.06t3.045,0.06l1.65,0.06,0.18-1.53-2.97-.24-0.12-1.11a19.592,19.592,0,0,1-.09-2.25V21.9h4.05l0.15-1.62h-4.14l-0.06-2.16a13.286,13.286,0,0,1,.21-2.73,2.3,2.3,0,0,1,.45-1.005,2.225,2.225,0,0,1,.84-0.57,2.9,2.9,0,0,1,1.125-.225,7.262,7.262,0,0,1,1,.06,5.688,5.688,0,0,1,.39,1.53v1.08l1.59,0.09,0.33-4.05q-0.36-.03-1.245-0.165A12.226,12.226,0,0,0,169.664,12a5.231,5.231,0,0,0-3.915,1.395,5.193,5.193,0,0,0-1.365,3.8v2.58a6.469,6.469,0,0,1-1.56.63h0Z"/>
</svg>
